<svg width="545" height="345" viewBox="0 0 545 345" fill="none" xmlns="http://www.w3.org/2000/svg">
<rect width="545" height="345" rx="12" fill="#3E3E3E"/>
<path d="M32.328 37V26.536H35.624C36.4027 26.536 37.096 26.6373 37.704 26.84C38.312 27.0427 38.792 27.3787 39.144 27.848C39.496 28.3173 39.672 28.9573 39.672 29.768C39.672 30.536 39.496 31.1707 39.144 31.672C38.792 32.1733 38.3173 32.5467 37.72 32.792C37.1227 33.0373 36.4453 33.16 35.688 33.16H34.184V37H32.328ZM34.184 31.672H35.544C37.08 31.672 37.848 31.0373 37.848 29.768C37.848 29.1067 37.6453 28.6533 37.24 28.408C36.8453 28.152 36.2587 28.024 35.48 28.024H34.184V31.672ZM41.4805 37V29.144H43.0005L43.1285 30.536H43.1925C43.4698 30.024 43.8058 29.6347 44.2005 29.368C44.5952 29.0907 45.0005 28.952 45.4165 28.952C45.7898 28.952 46.0885 29.0053 46.3125 29.112L45.9925 30.712C45.8538 30.6693 45.7258 30.6373 45.6085 30.616C45.4912 30.5947 45.3472 30.584 45.1765 30.584C44.8672 30.584 44.5418 30.7067 44.2005 30.952C43.8592 31.1867 43.5658 31.6027 43.3205 32.2V37H41.4805ZM50.509 37.192C49.8583 37.192 49.2503 37.032 48.685 36.712C48.1197 36.3813 47.661 35.912 47.309 35.304C46.957 34.6853 46.781 33.944 46.781 33.08C46.781 32.2053 46.957 31.464 47.309 30.856C47.661 30.2373 48.1197 29.768 48.685 29.448C49.2503 29.1173 49.8583 28.952 50.509 28.952C51.1703 28.952 51.7837 29.1173 52.349 29.448C52.9143 29.768 53.373 30.2373 53.725 30.856C54.077 31.464 54.253 32.2053 54.253 33.08C54.253 33.944 54.077 34.6853 53.725 35.304C53.373 35.912 52.9143 36.3813 52.349 36.712C51.7837 37.032 51.1703 37.192 50.509 37.192ZM50.509 35.688C51.085 35.688 51.5383 35.448 51.869 34.968C52.1997 34.488 52.365 33.8587 52.365 33.08C52.365 32.2907 52.1997 31.656 51.869 31.176C51.5383 30.696 51.085 30.456 50.509 30.456C49.933 30.456 49.4797 30.696 49.149 31.176C48.829 31.656 48.669 32.2907 48.669 33.08C48.669 33.8587 48.829 34.488 49.149 34.968C49.4797 35.448 49.933 35.688 50.509 35.688ZM55.4503 40.296C55.1623 40.296 54.9169 40.2747 54.7142 40.232C54.5009 40.1893 54.3196 40.1413 54.1702 40.088L54.5222 38.712C54.6289 38.744 54.7409 38.7707 54.8582 38.792C54.9649 38.824 55.0769 38.84 55.1943 38.84C55.5463 38.84 55.7809 38.7173 55.8983 38.472C56.0263 38.2373 56.0903 37.8907 56.0903 37.432V29.144H57.9463V37.4C57.9463 37.9547 57.8663 38.4507 57.7063 38.888C57.5463 39.3253 57.2849 39.6667 56.9223 39.912C56.5596 40.168 56.0689 40.296 55.4503 40.296ZM57.0182 27.768C56.6876 27.768 56.4209 27.672 56.2183 27.48C56.0156 27.288 55.9143 27.032 55.9143 26.712C55.9143 26.4027 56.0156 26.152 56.2183 25.96C56.4209 25.768 56.6876 25.672 57.0182 25.672C57.3489 25.672 57.6156 25.768 57.8183 25.96C58.0209 26.152 58.1223 26.4027 58.1223 26.712C58.1223 27.032 58.0209 27.288 57.8183 27.48C57.6156 27.672 57.3489 27.768 57.0182 27.768ZM63.6374 37.192C62.912 37.192 62.256 37.032 61.6694 36.712C61.0827 36.3813 60.6187 35.912 60.2774 35.304C59.936 34.6853 59.7654 33.944 59.7654 33.08C59.7654 32.2267 59.936 31.4907 60.2774 30.872C60.6294 30.2533 61.0827 29.7787 61.6374 29.448C62.192 29.1173 62.7734 28.952 63.3814 28.952C64.096 28.952 64.6934 29.112 65.1734 29.432C65.6534 29.7413 66.016 30.1787 66.2614 30.744C66.5067 31.2987 66.6294 31.944 66.6294 32.68C66.6294 33.064 66.6027 33.3627 66.5494 33.576H61.5574C61.6427 34.2693 61.8934 34.808 62.3094 35.192C62.7254 35.576 63.248 35.768 63.8774 35.768C64.2187 35.768 64.5334 35.72 64.8214 35.624C65.12 35.5173 65.4134 35.3733 65.7014 35.192L66.3254 36.344C65.952 36.5893 65.536 36.792 65.0774 36.952C64.6187 37.112 64.1387 37.192 63.6374 37.192ZM61.5414 32.328H65.0294C65.0294 31.72 64.896 31.2453 64.6294 30.904C64.3627 30.552 63.9627 30.376 63.4294 30.376C62.9707 30.376 62.56 30.5467 62.1974 30.888C61.8454 31.2187 61.6267 31.6987 61.5414 32.328ZM71.6668 37.192C70.9521 37.192 70.3068 37.032 69.7308 36.712C69.1654 36.3813 68.7121 35.912 68.3708 35.304C68.0401 34.6853 67.8748 33.944 67.8748 33.08C67.8748 32.2053 68.0561 31.464 68.4188 30.856C68.7814 30.2373 69.2614 29.768 69.8588 29.448C70.4668 29.1173 71.1174 28.952 71.8108 28.952C72.3121 28.952 72.7494 29.0373 73.1228 29.208C73.4961 29.3787 73.8268 29.5867 74.1148 29.832L73.2188 31.032C73.0161 30.8507 72.8081 30.712 72.5948 30.616C72.3814 30.5093 72.1521 30.456 71.9068 30.456C71.2774 30.456 70.7601 30.696 70.3548 31.176C69.9601 31.656 69.7628 32.2907 69.7628 33.08C69.7628 33.8587 69.9548 34.488 70.3388 34.968C70.7334 35.448 71.2401 35.688 71.8588 35.688C72.1681 35.688 72.4561 35.624 72.7228 35.496C73.0001 35.3573 73.2508 35.1973 73.4748 35.016L74.2268 36.232C73.8641 36.552 73.4588 36.792 73.0108 36.952C72.5628 37.112 72.1148 37.192 71.6668 37.192ZM78.3891 37.192C77.4825 37.192 76.8371 36.9307 76.4531 36.408C76.0798 35.8747 75.8931 35.1867 75.8931 34.344V30.6H74.7731V29.224L75.9891 29.144L76.2131 27H77.7491V29.144H79.7491V30.6H77.7491V34.344C77.7491 35.2613 78.1171 35.72 78.8531 35.72C78.9918 35.72 79.1358 35.704 79.2851 35.672C79.4345 35.6293 79.5625 35.5867 79.6691 35.544L79.9891 36.904C79.7758 36.9787 79.5305 37.0427 79.2531 37.096C78.9865 37.16 78.6985 37.192 78.3891 37.192Z" fill="white"/>
<rect x="31.5" y="56.5" width="232" height="263" rx="7.5" stroke="#5D5D5D"/>
<path d="M44.162 79V69.844H47.046C47.7273 69.844 48.334 69.9327 48.866 70.11C49.398 70.2873 49.818 70.5813 50.126 70.992C50.434 71.4027 50.588 71.9627 50.588 72.672C50.588 73.344 50.434 73.8993 50.126 74.338C49.818 74.7767 49.4027 75.1033 48.88 75.318C48.3573 75.5327 47.7647 75.64 47.102 75.64H45.786V79H44.162ZM45.786 74.338H46.976C48.32 74.338 48.992 73.7827 48.992 72.672C48.992 72.0933 48.8147 71.6967 48.46 71.482C48.1147 71.258 47.6013 71.146 46.92 71.146H45.786V74.338ZM52.1704 79V72.126H53.5004L53.6124 73.344H53.6684C53.9111 72.896 54.2051 72.5553 54.5504 72.322C54.8958 72.0793 55.2504 71.958 55.6144 71.958C55.9411 71.958 56.2024 72.0047 56.3984 72.098L56.1184 73.498C55.9971 73.4607 55.8851 73.4327 55.7824 73.414C55.6798 73.3953 55.5538 73.386 55.4044 73.386C55.1338 73.386 54.8491 73.4933 54.5504 73.708C54.2518 73.9133 53.9951 74.2773 53.7804 74.8V79H52.1704ZM60.0704 79.168C59.501 79.168 58.969 79.028 58.4744 78.748C57.9797 78.4587 57.5784 78.048 57.2704 77.516C56.9624 76.9747 56.8084 76.326 56.8084 75.57C56.8084 74.8047 56.9624 74.156 57.2704 73.624C57.5784 73.0827 57.9797 72.672 58.4744 72.392C58.969 72.1027 59.501 71.958 60.0704 71.958C60.649 71.958 61.1857 72.1027 61.6804 72.392C62.175 72.672 62.5764 73.0827 62.8844 73.624C63.1924 74.156 63.3464 74.8047 63.3464 75.57C63.3464 76.326 63.1924 76.9747 62.8844 77.516C62.5764 78.048 62.175 78.4587 61.6804 78.748C61.1857 79.028 60.649 79.168 60.0704 79.168ZM60.0704 77.852C60.5744 77.852 60.971 77.642 61.2604 77.222C61.5497 76.802 61.6944 76.2513 61.6944 75.57C61.6944 74.8793 61.5497 74.324 61.2604 73.904C60.971 73.484 60.5744 73.274 60.0704 73.274C59.5664 73.274 59.1697 73.484 58.8804 73.904C58.6004 74.324 58.4604 74.8793 58.4604 75.57C58.4604 76.2513 58.6004 76.802 58.8804 77.222C59.1697 77.642 59.5664 77.852 60.0704 77.852ZM64.394 81.884C64.142 81.884 63.9273 81.8653 63.75 81.828C63.5633 81.7907 63.4046 81.7487 63.274 81.702L63.582 80.498C63.6753 80.526 63.7733 80.5493 63.876 80.568C63.9693 80.596 64.0673 80.61 64.17 80.61C64.478 80.61 64.6833 80.5027 64.786 80.288C64.898 80.0827 64.954 79.7793 64.954 79.378V72.126H66.578V79.35C66.578 79.8353 66.508 80.2693 66.368 80.652C66.228 81.0347 65.9993 81.3333 65.682 81.548C65.3646 81.772 64.9353 81.884 64.394 81.884ZM65.766 70.922C65.4766 70.922 65.2433 70.838 65.066 70.67C64.8886 70.502 64.8 70.278 64.8 69.998C64.8 69.7273 64.8886 69.508 65.066 69.34C65.2433 69.172 65.4766 69.088 65.766 69.088C66.0553 69.088 66.2886 69.172 66.466 69.34C66.6433 69.508 66.732 69.7273 66.732 69.998C66.732 70.278 66.6433 70.502 66.466 70.67C66.2886 70.838 66.0553 70.922 65.766 70.922ZM71.5577 79.168C70.923 79.168 70.349 79.028 69.8357 78.748C69.3224 78.4587 68.9164 78.048 68.6177 77.516C68.319 76.9747 68.1697 76.326 68.1697 75.57C68.1697 74.8233 68.319 74.1793 68.6177 73.638C68.9257 73.0967 69.3224 72.6813 69.8077 72.392C70.293 72.1027 70.8017 71.958 71.3337 71.958C71.959 71.958 72.4817 72.098 72.9017 72.378C73.3217 72.6487 73.639 73.0313 73.8537 73.526C74.0684 74.0113 74.1757 74.576 74.1757 75.22C74.1757 75.556 74.1524 75.8173 74.1057 76.004H69.7377C69.8124 76.6107 70.0317 77.082 70.3957 77.418C70.7597 77.754 71.217 77.922 71.7677 77.922C72.0664 77.922 72.3417 77.88 72.5937 77.796C72.855 77.7027 73.1117 77.5767 73.3637 77.418L73.9097 78.426C73.583 78.6407 73.219 78.818 72.8177 78.958C72.4164 79.098 71.9964 79.168 71.5577 79.168ZM69.7237 74.912H72.7757C72.7757 74.38 72.659 73.9647 72.4257 73.666C72.1924 73.358 71.8424 73.204 71.3757 73.204C70.9744 73.204 70.615 73.3533 70.2977 73.652C69.9897 73.9413 69.7984 74.3613 69.7237 74.912ZM78.5834 79.168C77.9581 79.168 77.3934 79.028 76.8894 78.748C76.3947 78.4587 75.9981 78.048 75.6994 77.516C75.4101 76.9747 75.2654 76.326 75.2654 75.57C75.2654 74.8047 75.4241 74.156 75.7414 73.624C76.0587 73.0827 76.4787 72.672 77.0014 72.392C77.5334 72.1027 78.1027 71.958 78.7094 71.958C79.1481 71.958 79.5307 72.0327 79.8574 72.182C80.1841 72.3313 80.4734 72.5133 80.7254 72.728L79.9414 73.778C79.7641 73.6193 79.5821 73.498 79.3954 73.414C79.2087 73.3207 79.0081 73.274 78.7934 73.274C78.2427 73.274 77.7901 73.484 77.4354 73.904C77.0901 74.324 76.9174 74.8793 76.9174 75.57C76.9174 76.2513 77.0854 76.802 77.4214 77.222C77.7667 77.642 78.2101 77.852 78.7514 77.852C79.0221 77.852 79.2741 77.796 79.5074 77.684C79.7501 77.5627 79.9694 77.4227 80.1654 77.264L80.8234 78.328C80.5061 78.608 80.1514 78.818 79.7594 78.958C79.3674 79.098 78.9754 79.168 78.5834 79.168ZM84.4655 79.168C83.6722 79.168 83.1075 78.9393 82.7715 78.482C82.4448 78.0153 82.2815 77.4133 82.2815 76.676V73.4H81.3015V72.196L82.3655 72.126L82.5615 70.25H83.9055V72.126H85.6555V73.4H83.9055V76.676C83.9055 77.4787 84.2275 77.88 84.8715 77.88C84.9928 77.88 85.1188 77.866 85.2495 77.838C85.3802 77.8007 85.4922 77.7633 85.5855 77.726L85.8655 78.916C85.6788 78.9813 85.4642 79.0373 85.2215 79.084C84.9882 79.14 84.7362 79.168 84.4655 79.168ZM89.9048 81.716V72.126H91.2348L91.3468 72.854H91.4028C91.6921 72.6113 92.0141 72.4013 92.3688 72.224C92.7328 72.0467 93.1015 71.958 93.4748 71.958C94.3335 71.958 94.9961 72.2753 95.4628 72.91C95.9388 73.5447 96.1768 74.394 96.1768 75.458C96.1768 76.242 96.0368 76.914 95.7568 77.474C95.4768 78.0247 95.1128 78.4447 94.6648 78.734C94.2261 79.0233 93.7501 79.168 93.2368 79.168C92.9381 79.168 92.6395 79.1027 92.3408 78.972C92.0421 78.832 91.7528 78.6453 91.4728 78.412L91.5148 79.56V81.716H89.9048ZM92.9008 77.838C93.3581 77.838 93.7408 77.6373 94.0488 77.236C94.3568 76.8347 94.5108 76.2467 94.5108 75.472C94.5108 74.7813 94.3941 74.2447 94.1608 73.862C93.9275 73.4793 93.5495 73.288 93.0268 73.288C92.5415 73.288 92.0375 73.5447 91.5148 74.058V77.264C91.7668 77.4693 92.0095 77.6187 92.2428 77.712C92.4761 77.796 92.6955 77.838 92.9008 77.838ZM97.8072 79V72.126H99.1372L99.2492 73.344H99.3052C99.5478 72.896 99.8418 72.5553 100.187 72.322C100.532 72.0793 100.887 71.958 101.251 71.958C101.578 71.958 101.839 72.0047 102.035 72.098L101.755 73.498C101.634 73.4607 101.522 73.4327 101.419 73.414C101.316 73.3953 101.19 73.386 101.041 73.386C100.77 73.386 100.486 73.4933 100.187 73.708C99.8885 73.9133 99.6318 74.2773 99.4172 74.8V79H97.8072ZM105.707 79.168C105.138 79.168 104.606 79.028 104.111 78.748C103.616 78.4587 103.215 78.048 102.907 77.516C102.599 76.9747 102.445 76.326 102.445 75.57C102.445 74.8047 102.599 74.156 102.907 73.624C103.215 73.0827 103.616 72.672 104.111 72.392C104.606 72.1027 105.138 71.958 105.707 71.958C106.286 71.958 106.822 72.1027 107.317 72.392C107.812 72.672 108.213 73.0827 108.521 73.624C108.829 74.156 108.983 74.8047 108.983 75.57C108.983 76.326 108.829 76.9747 108.521 77.516C108.213 78.048 107.812 78.4587 107.317 78.748C106.822 79.028 106.286 79.168 105.707 79.168ZM105.707 77.852C106.211 77.852 106.608 77.642 106.897 77.222C107.186 76.802 107.331 76.2513 107.331 75.57C107.331 74.8793 107.186 74.324 106.897 73.904C106.608 73.484 106.211 73.274 105.707 73.274C105.203 73.274 104.806 73.484 104.517 73.904C104.237 74.324 104.097 74.8793 104.097 75.57C104.097 76.2513 104.237 76.802 104.517 77.222C104.806 77.642 105.203 77.852 105.707 77.852ZM112.971 82.038C112.429 82.038 111.939 81.9727 111.501 81.842C111.071 81.7113 110.731 81.5107 110.479 81.24C110.236 80.9787 110.115 80.6473 110.115 80.246C110.115 79.6767 110.441 79.1867 111.095 78.776V78.72C110.917 78.608 110.768 78.4587 110.647 78.272C110.535 78.0853 110.479 77.852 110.479 77.572C110.479 77.3013 110.553 77.0587 110.703 76.844C110.861 76.62 111.039 76.438 111.235 76.298V76.242C111.001 76.0647 110.791 75.8173 110.605 75.5C110.427 75.1827 110.339 74.8233 110.339 74.422C110.339 73.89 110.465 73.442 110.717 73.078C110.969 72.714 111.3 72.4387 111.711 72.252C112.131 72.056 112.579 71.958 113.055 71.958C113.241 71.958 113.419 71.9767 113.587 72.014C113.764 72.042 113.923 72.0793 114.063 72.126H116.527V73.316H115.267C115.379 73.4467 115.472 73.6147 115.547 73.82C115.621 74.016 115.659 74.2353 115.659 74.478C115.659 74.982 115.542 75.4113 115.309 75.766C115.075 76.1113 114.763 76.3727 114.371 76.55C113.979 76.7273 113.54 76.816 113.055 76.816C112.905 76.816 112.751 76.802 112.593 76.774C112.434 76.746 112.275 76.6993 112.117 76.634C112.014 76.7273 111.93 76.8207 111.865 76.914C111.809 77.0073 111.781 77.1333 111.781 77.292C111.781 77.488 111.86 77.642 112.019 77.754C112.187 77.866 112.481 77.922 112.901 77.922H114.119C114.949 77.922 115.575 78.0573 115.995 78.328C116.424 78.5893 116.639 79.0187 116.639 79.616C116.639 80.064 116.489 80.47 116.191 80.834C115.892 81.2073 115.467 81.5013 114.917 81.716C114.366 81.9307 113.717 82.038 112.971 82.038ZM113.055 75.808C113.381 75.808 113.661 75.6867 113.895 75.444C114.128 75.2013 114.245 74.8607 114.245 74.422C114.245 73.9927 114.128 73.6613 113.895 73.428C113.671 73.1853 113.391 73.064 113.055 73.064C112.719 73.064 112.434 73.1807 112.201 73.414C111.967 73.6473 111.851 73.9833 111.851 74.422C111.851 74.8607 111.967 75.2013 112.201 75.444C112.434 75.6867 112.719 75.808 113.055 75.808ZM113.223 80.988C113.773 80.988 114.221 80.876 114.567 80.652C114.912 80.428 115.085 80.1713 115.085 79.882C115.085 79.6113 114.977 79.4293 114.763 79.336C114.557 79.2427 114.259 79.196 113.867 79.196H112.929C112.555 79.196 112.243 79.1633 111.991 79.098C111.636 79.3687 111.459 79.672 111.459 80.008C111.459 80.316 111.617 80.554 111.935 80.722C112.252 80.8993 112.681 80.988 113.223 80.988ZM117.85 79V72.126H119.18L119.292 73.344H119.348C119.591 72.896 119.885 72.5553 120.23 72.322C120.575 72.0793 120.93 71.958 121.294 71.958C121.621 71.958 121.882 72.0047 122.078 72.098L121.798 73.498C121.677 73.4607 121.565 73.4327 121.462 73.414C121.359 73.3953 121.233 73.386 121.084 73.386C120.813 73.386 120.529 73.4933 120.23 73.708C119.931 73.9133 119.675 74.2773 119.46 74.8V79H117.85ZM125.876 79.168C125.241 79.168 124.667 79.028 124.154 78.748C123.641 78.4587 123.235 78.048 122.936 77.516C122.637 76.9747 122.488 76.326 122.488 75.57C122.488 74.8233 122.637 74.1793 122.936 73.638C123.244 73.0967 123.641 72.6813 124.126 72.392C124.611 72.1027 125.12 71.958 125.652 71.958C126.277 71.958 126.8 72.098 127.22 72.378C127.64 72.6487 127.957 73.0313 128.172 73.526C128.387 74.0113 128.494 74.576 128.494 75.22C128.494 75.556 128.471 75.8173 128.424 76.004H124.056C124.131 76.6107 124.35 77.082 124.714 77.418C125.078 77.754 125.535 77.922 126.086 77.922C126.385 77.922 126.66 77.88 126.912 77.796C127.173 77.7027 127.43 77.5767 127.682 77.418L128.228 78.426C127.901 78.6407 127.537 78.818 127.136 78.958C126.735 79.098 126.315 79.168 125.876 79.168ZM124.042 74.912H127.094C127.094 74.38 126.977 73.9647 126.744 73.666C126.511 73.358 126.161 73.204 125.694 73.204C125.293 73.204 124.933 73.3533 124.616 73.652C124.308 73.9413 124.117 74.3613 124.042 74.912ZM131.95 79.168C131.483 79.168 131.016 79.0793 130.55 78.902C130.083 78.7153 129.682 78.4867 129.346 78.216L130.102 77.18C130.41 77.4133 130.718 77.6 131.026 77.74C131.334 77.88 131.66 77.95 132.006 77.95C132.379 77.95 132.654 77.8707 132.832 77.712C133.009 77.5533 133.098 77.3573 133.098 77.124C133.098 76.928 133.023 76.7693 132.874 76.648C132.734 76.5173 132.552 76.4053 132.328 76.312C132.104 76.2093 131.87 76.1113 131.628 76.018C131.329 75.906 131.03 75.7707 130.732 75.612C130.442 75.444 130.204 75.234 130.018 74.982C129.831 74.7207 129.738 74.3987 129.738 74.016C129.738 73.4093 129.962 72.9147 130.41 72.532C130.858 72.1493 131.464 71.958 132.23 71.958C132.715 71.958 133.149 72.042 133.532 72.21C133.914 72.378 134.246 72.5693 134.526 72.784L133.784 73.764C133.541 73.5867 133.294 73.4467 133.042 73.344C132.799 73.232 132.542 73.176 132.272 73.176C131.926 73.176 131.67 73.2507 131.502 73.4C131.334 73.54 131.25 73.7173 131.25 73.932C131.25 74.2027 131.39 74.408 131.67 74.548C131.95 74.688 132.276 74.8233 132.65 74.954C132.967 75.066 133.275 75.206 133.574 75.374C133.872 75.5327 134.12 75.7427 134.316 76.004C134.521 76.2653 134.624 76.6107 134.624 77.04C134.624 77.628 134.395 78.132 133.938 78.552C133.48 78.9627 132.818 79.168 131.95 79.168ZM137.979 79.168C137.512 79.168 137.046 79.0793 136.579 78.902C136.112 78.7153 135.711 78.4867 135.375 78.216L136.131 77.18C136.439 77.4133 136.747 77.6 137.055 77.74C137.363 77.88 137.69 77.95 138.035 77.95C138.408 77.95 138.684 77.8707 138.861 77.712C139.038 77.5533 139.127 77.3573 139.127 77.124C139.127 76.928 139.052 76.7693 138.903 76.648C138.763 76.5173 138.581 76.4053 138.357 76.312C138.133 76.2093 137.9 76.1113 137.657 76.018C137.358 75.906 137.06 75.7707 136.761 75.612C136.472 75.444 136.234 75.234 136.047 74.982C135.86 74.7207 135.767 74.3987 135.767 74.016C135.767 73.4093 135.991 72.9147 136.439 72.532C136.887 72.1493 137.494 71.958 138.259 71.958C138.744 71.958 139.178 72.042 139.561 72.21C139.944 72.378 140.275 72.5693 140.555 72.784L139.813 73.764C139.57 73.5867 139.323 73.4467 139.071 73.344C138.828 73.232 138.572 73.176 138.301 73.176C137.956 73.176 137.699 73.2507 137.531 73.4C137.363 73.54 137.279 73.7173 137.279 73.932C137.279 74.2027 137.419 74.408 137.699 74.548C137.979 74.688 138.306 74.8233 138.679 74.954C138.996 75.066 139.304 75.206 139.603 75.374C139.902 75.5327 140.149 75.7427 140.345 76.004C140.55 76.2653 140.653 76.6107 140.653 77.04C140.653 77.628 140.424 78.132 139.967 78.552C139.51 78.9627 138.847 79.168 137.979 79.168Z" fill="white"/>
<rect x="43" y="102" width="205" height="5" rx="2.5" fill="#CBD5E0"/>
<rect x="43" y="102" width="140.984" height="5" rx="2.5" fill="#FFB067"/>
<rect x="43" y="121" width="205" height="5" rx="2.5" fill="#CBD5E0"/>
<rect x="43" y="121" width="195" height="5" rx="2.5" fill="#86D59F"/>
<rect x="43" y="140" width="205" height="5" rx="2.5" fill="#CBD5E0"/>
<rect x="43" y="140" width="69" height="5" rx="2.5" fill="#EC57A8"/>
<rect x="43" y="159" width="205" height="5" rx="2.5" fill="#CBD5E0"/>
<rect x="43" y="159" width="163" height="5" rx="2.5" fill="#86D59F"/>
<rect x="43" y="178" width="205" height="5" rx="2.5" fill="#CBD5E0"/>
<rect x="43" y="178" width="28" height="5" rx="2.5" fill="#EC57A8"/>
<rect x="43" y="197" width="205" height="5" rx="2.5" fill="#CBD5E0"/>
<rect x="43" y="197" width="101" height="5" rx="2.5" fill="#FFB067"/>
<rect x="43" y="216" width="205" height="5" rx="2.5" fill="#CBD5E0"/>
<rect x="43" y="216" width="186" height="5" rx="2.5" fill="#86D59F"/>
<rect x="43" y="235" width="205" height="5" rx="2.5" fill="#CBD5E0"/>
<rect x="43" y="235" width="72" height="5" rx="2.5" fill="#5B5AF7"/>
<rect x="43" y="254" width="205" height="5" rx="2.5" fill="#CBD5E0"/>
<rect x="43" y="254" width="17" height="5" rx="2.5" fill="#EC57A8"/>
<rect x="43" y="273" width="205" height="5" rx="2.5" fill="#CBD5E0"/>
<rect x="43" y="273" width="195" height="5" rx="2.5" fill="#86D59F"/>
<rect x="43" y="292" width="205" height="5" rx="2.5" fill="#CBD5E0"/>
<rect x="43" y="292" width="114" height="5" rx="2.5" fill="#FFB067"/>
<rect x="283.5" y="56.5" width="232" height="263" rx="7.5" stroke="#5D5D5D"/>
<path d="M298.836 79.168C298.22 79.168 297.623 79.0513 297.044 78.818C296.475 78.5847 295.971 78.2533 295.532 77.824L296.484 76.718C296.811 77.026 297.184 77.278 297.604 77.474C298.024 77.6607 298.444 77.754 298.864 77.754C299.387 77.754 299.783 77.6467 300.054 77.432C300.325 77.2173 300.46 76.9327 300.46 76.578C300.46 76.1953 300.325 75.92 300.054 75.752C299.793 75.584 299.457 75.4113 299.046 75.234L297.786 74.688C297.487 74.5573 297.193 74.3893 296.904 74.184C296.624 73.9787 296.391 73.7173 296.204 73.4C296.027 73.0827 295.938 72.7 295.938 72.252C295.938 71.7667 296.069 71.3327 296.33 70.95C296.601 70.558 296.965 70.25 297.422 70.026C297.889 69.7927 298.421 69.676 299.018 69.676C299.55 69.676 300.063 69.7833 300.558 69.998C301.053 70.2033 301.477 70.4833 301.832 70.838L301.006 71.874C300.717 71.6313 300.409 71.44 300.082 71.3C299.765 71.16 299.41 71.09 299.018 71.09C298.589 71.09 298.239 71.188 297.968 71.384C297.707 71.5707 297.576 71.832 297.576 72.168C297.576 72.4013 297.641 72.5973 297.772 72.756C297.912 72.9053 298.094 73.036 298.318 73.148C298.542 73.2507 298.78 73.3533 299.032 73.456L300.278 73.974C300.819 74.2073 301.263 74.5153 301.608 74.898C301.953 75.2713 302.126 75.7893 302.126 76.452C302.126 76.9467 301.995 77.3993 301.734 77.81C301.473 78.2207 301.095 78.552 300.6 78.804C300.115 79.0467 299.527 79.168 298.836 79.168ZM306.521 79.168C305.896 79.168 305.331 79.028 304.827 78.748C304.332 78.4587 303.936 78.048 303.637 77.516C303.348 76.9747 303.203 76.326 303.203 75.57C303.203 74.8047 303.362 74.156 303.679 73.624C303.996 73.0827 304.416 72.672 304.939 72.392C305.471 72.1027 306.04 71.958 306.647 71.958C307.086 71.958 307.468 72.0327 307.795 72.182C308.122 72.3313 308.411 72.5133 308.663 72.728L307.879 73.778C307.702 73.6193 307.52 73.498 307.333 73.414C307.146 73.3207 306.946 73.274 306.731 73.274C306.18 73.274 305.728 73.484 305.373 73.904C305.028 74.324 304.855 74.8793 304.855 75.57C304.855 76.2513 305.023 76.802 305.359 77.222C305.704 77.642 306.148 77.852 306.689 77.852C306.96 77.852 307.212 77.796 307.445 77.684C307.688 77.5627 307.907 77.4227 308.103 77.264L308.761 78.328C308.444 78.608 308.089 78.818 307.697 78.958C307.305 79.098 306.913 79.168 306.521 79.168ZM312.59 79.168C312.021 79.168 311.489 79.028 310.994 78.748C310.499 78.4587 310.098 78.048 309.79 77.516C309.482 76.9747 309.328 76.326 309.328 75.57C309.328 74.8047 309.482 74.156 309.79 73.624C310.098 73.0827 310.499 72.672 310.994 72.392C311.489 72.1027 312.021 71.958 312.59 71.958C313.169 71.958 313.705 72.1027 314.2 72.392C314.695 72.672 315.096 73.0827 315.404 73.624C315.712 74.156 315.866 74.8047 315.866 75.57C315.866 76.326 315.712 76.9747 315.404 77.516C315.096 78.048 314.695 78.4587 314.2 78.748C313.705 79.028 313.169 79.168 312.59 79.168ZM312.59 77.852C313.094 77.852 313.491 77.642 313.78 77.222C314.069 76.802 314.214 76.2513 314.214 75.57C314.214 74.8793 314.069 74.324 313.78 73.904C313.491 73.484 313.094 73.274 312.59 73.274C312.086 73.274 311.689 73.484 311.4 73.904C311.12 74.324 310.98 74.8793 310.98 75.57C310.98 76.2513 311.12 76.802 311.4 77.222C311.689 77.642 312.086 77.852 312.59 77.852ZM317.46 81.716V72.126H318.79L318.902 72.854H318.958C319.247 72.6113 319.569 72.4013 319.924 72.224C320.288 72.0467 320.656 71.958 321.03 71.958C321.888 71.958 322.551 72.2753 323.018 72.91C323.494 73.5447 323.732 74.394 323.732 75.458C323.732 76.242 323.592 76.914 323.312 77.474C323.032 78.0247 322.668 78.4447 322.22 78.734C321.781 79.0233 321.305 79.168 320.792 79.168C320.493 79.168 320.194 79.1027 319.896 78.972C319.597 78.832 319.308 78.6453 319.028 78.412L319.07 79.56V81.716H317.46ZM320.456 77.838C320.913 77.838 321.296 77.6373 321.604 77.236C321.912 76.8347 322.066 76.2467 322.066 75.472C322.066 74.7813 321.949 74.2447 321.716 73.862C321.482 73.4793 321.104 73.288 320.582 73.288C320.096 73.288 319.592 73.5447 319.07 74.058V77.264C319.322 77.4693 319.564 77.6187 319.798 77.712C320.031 77.796 320.25 77.838 320.456 77.838ZM328.302 79.168C327.667 79.168 327.093 79.028 326.58 78.748C326.067 78.4587 325.661 78.048 325.362 77.516C325.063 76.9747 324.914 76.326 324.914 75.57C324.914 74.8233 325.063 74.1793 325.362 73.638C325.67 73.0967 326.067 72.6813 326.552 72.392C327.037 72.1027 327.546 71.958 328.078 71.958C328.703 71.958 329.226 72.098 329.646 72.378C330.066 72.6487 330.383 73.0313 330.598 73.526C330.813 74.0113 330.92 74.576 330.92 75.22C330.92 75.556 330.897 75.8173 330.85 76.004H326.482C326.557 76.6107 326.776 77.082 327.14 77.418C327.504 77.754 327.961 77.922 328.512 77.922C328.811 77.922 329.086 77.88 329.338 77.796C329.599 77.7027 329.856 77.5767 330.108 77.418L330.654 78.426C330.327 78.6407 329.963 78.818 329.562 78.958C329.161 79.098 328.741 79.168 328.302 79.168ZM326.468 74.912H329.52C329.52 74.38 329.403 73.9647 329.17 73.666C328.937 73.358 328.587 73.204 328.12 73.204C327.719 73.204 327.359 73.3533 327.042 73.652C326.734 73.9413 326.543 74.3613 326.468 74.912ZM338.13 79.168C337.505 79.168 336.94 79.028 336.436 78.748C335.942 78.4587 335.545 78.048 335.246 77.516C334.957 76.9747 334.812 76.326 334.812 75.57C334.812 74.8047 334.971 74.156 335.288 73.624C335.606 73.0827 336.026 72.672 336.548 72.392C337.08 72.1027 337.65 71.958 338.256 71.958C338.695 71.958 339.078 72.0327 339.404 72.182C339.731 72.3313 340.02 72.5133 340.272 72.728L339.488 73.778C339.311 73.6193 339.129 73.498 338.942 73.414C338.756 73.3207 338.555 73.274 338.34 73.274C337.79 73.274 337.337 73.484 336.982 73.904C336.637 74.324 336.464 74.8793 336.464 75.57C336.464 76.2513 336.632 76.802 336.968 77.222C337.314 77.642 337.757 77.852 338.298 77.852C338.569 77.852 338.821 77.796 339.054 77.684C339.297 77.5627 339.516 77.4227 339.712 77.264L340.37 78.328C340.053 78.608 339.698 78.818 339.306 78.958C338.914 79.098 338.522 79.168 338.13 79.168ZM341.727 79V72.126H343.057L343.169 73.344H343.225C343.468 72.896 343.762 72.5553 344.107 72.322C344.452 72.0793 344.807 71.958 345.171 71.958C345.498 71.958 345.759 72.0047 345.955 72.098L345.675 73.498C345.554 73.4607 345.442 73.4327 345.339 73.414C345.236 73.3953 345.11 73.386 344.961 73.386C344.69 73.386 344.406 73.4933 344.107 73.708C343.808 73.9133 343.552 74.2773 343.337 74.8V79H341.727ZM349.753 79.168C349.118 79.168 348.544 79.028 348.031 78.748C347.518 78.4587 347.112 78.048 346.813 77.516C346.514 76.9747 346.365 76.326 346.365 75.57C346.365 74.8233 346.514 74.1793 346.813 73.638C347.121 73.0967 347.518 72.6813 348.003 72.392C348.488 72.1027 348.997 71.958 349.529 71.958C350.154 71.958 350.677 72.098 351.097 72.378C351.517 72.6487 351.834 73.0313 352.049 73.526C352.264 74.0113 352.371 74.576 352.371 75.22C352.371 75.556 352.348 75.8173 352.301 76.004H347.933C348.008 76.6107 348.227 77.082 348.591 77.418C348.955 77.754 349.412 77.922 349.963 77.922C350.262 77.922 350.537 77.88 350.789 77.796C351.05 77.7027 351.307 77.5767 351.559 77.418L352.105 78.426C351.778 78.6407 351.414 78.818 351.013 78.958C350.612 79.098 350.192 79.168 349.753 79.168ZM347.919 74.912H350.971C350.971 74.38 350.854 73.9647 350.621 73.666C350.388 73.358 350.038 73.204 349.571 73.204C349.17 73.204 348.81 73.3533 348.493 73.652C348.185 73.9413 347.994 74.3613 347.919 74.912ZM356.849 79.168C356.214 79.168 355.64 79.028 355.127 78.748C354.613 78.4587 354.207 78.048 353.909 77.516C353.61 76.9747 353.461 76.326 353.461 75.57C353.461 74.8233 353.61 74.1793 353.909 73.638C354.217 73.0967 354.613 72.6813 355.099 72.392C355.584 72.1027 356.093 71.958 356.625 71.958C357.25 71.958 357.773 72.098 358.193 72.378C358.613 72.6487 358.93 73.0313 359.145 73.526C359.359 74.0113 359.467 74.576 359.467 75.22C359.467 75.556 359.443 75.8173 359.397 76.004H355.029C355.103 76.6107 355.323 77.082 355.687 77.418C356.051 77.754 356.508 77.922 357.059 77.922C357.357 77.922 357.633 77.88 357.885 77.796C358.146 77.7027 358.403 77.5767 358.655 77.418L359.201 78.426C358.874 78.6407 358.51 78.818 358.109 78.958C357.707 79.098 357.287 79.168 356.849 79.168ZM355.015 74.912H358.067C358.067 74.38 357.95 73.9647 357.717 73.666C357.483 73.358 357.133 73.204 356.667 73.204C356.265 73.204 355.906 73.3533 355.589 73.652C355.281 73.9413 355.089 74.3613 355.015 74.912ZM361.004 81.716V72.126H362.334L362.446 72.854H362.502C362.792 72.6113 363.114 72.4013 363.468 72.224C363.832 72.0467 364.201 71.958 364.574 71.958C365.433 71.958 366.096 72.2753 366.562 72.91C367.038 73.5447 367.276 74.394 367.276 75.458C367.276 76.242 367.136 76.914 366.856 77.474C366.576 78.0247 366.212 78.4447 365.764 78.734C365.326 79.0233 364.85 79.168 364.336 79.168C364.038 79.168 363.739 79.1027 363.44 78.972C363.142 78.832 362.852 78.6453 362.572 78.412L362.614 79.56V81.716H361.004ZM364 77.838C364.458 77.838 364.84 77.6373 365.148 77.236C365.456 76.8347 365.61 76.2467 365.61 75.472C365.61 74.7813 365.494 74.2447 365.26 73.862C365.027 73.4793 364.649 73.288 364.126 73.288C363.641 73.288 363.137 73.5447 362.614 74.058V77.264C362.866 77.4693 363.109 77.6187 363.342 77.712C363.576 77.796 363.795 77.838 364 77.838ZM375.042 79.168C374.388 79.168 373.763 78.8693 373.166 78.272H373.124L372.984 79H371.71V69.116H373.32V71.664L373.278 72.812C373.567 72.56 373.884 72.3547 374.23 72.196C374.575 72.0373 374.92 71.958 375.266 71.958C376.124 71.958 376.792 72.2753 377.268 72.91C377.744 73.5447 377.982 74.3893 377.982 75.444C377.982 76.228 377.842 76.9 377.562 77.46C377.282 78.0107 376.918 78.4353 376.47 78.734C376.031 79.0233 375.555 79.168 375.042 79.168ZM374.706 77.838C375.163 77.838 375.546 77.6373 375.854 77.236C376.162 76.8347 376.316 76.2467 376.316 75.472C376.316 74.7813 376.199 74.2447 375.966 73.862C375.732 73.4793 375.354 73.288 374.832 73.288C374.346 73.288 373.842 73.5447 373.32 74.058V77.264C373.562 77.4693 373.8 77.6187 374.034 77.712C374.276 77.796 374.5 77.838 374.706 77.838ZM379.978 81.828C379.791 81.828 379.628 81.814 379.488 81.786C379.348 81.758 379.213 81.7253 379.082 81.688L379.376 80.428C379.441 80.4467 379.516 80.4653 379.6 80.484C379.693 80.512 379.782 80.526 379.866 80.526C380.23 80.526 380.519 80.414 380.734 80.19C380.958 79.9753 381.126 79.6953 381.238 79.35L381.364 78.916L378.662 72.126H380.3L381.49 75.5C381.593 75.7987 381.691 76.116 381.784 76.452C381.887 76.7787 381.989 77.1053 382.092 77.432H382.148C382.232 77.1147 382.316 76.7927 382.4 76.466C382.493 76.13 382.582 75.808 382.666 75.5L383.702 72.126H385.256L382.764 79.308C382.475 80.0827 382.125 80.694 381.714 81.142C381.303 81.5993 380.725 81.828 379.978 81.828ZM389.391 79V69.844H394.907V71.216H391.015V73.554H394.305V74.926H391.015V77.628H395.047V79H389.391ZM396.784 81.716V72.126H398.114L398.226 72.854H398.282C398.571 72.6113 398.893 72.4013 399.248 72.224C399.612 72.0467 399.98 71.958 400.354 71.958C401.212 71.958 401.875 72.2753 402.342 72.91C402.818 73.5447 403.056 74.394 403.056 75.458C403.056 76.242 402.916 76.914 402.636 77.474C402.356 78.0247 401.992 78.4447 401.544 78.734C401.105 79.0233 400.629 79.168 400.116 79.168C399.817 79.168 399.518 79.1027 399.22 78.972C398.921 78.832 398.632 78.6453 398.352 78.412L398.394 79.56V81.716H396.784ZM399.78 77.838C400.237 77.838 400.62 77.6373 400.928 77.236C401.236 76.8347 401.39 76.2467 401.39 75.472C401.39 74.7813 401.273 74.2447 401.04 73.862C400.806 73.4793 400.428 73.288 399.906 73.288C399.42 73.288 398.916 73.5447 398.394 74.058V77.264C398.646 77.4693 398.888 77.6187 399.122 77.712C399.355 77.796 399.574 77.838 399.78 77.838ZM404.686 79V72.126H406.296V79H404.686ZM405.498 70.922C405.209 70.922 404.975 70.838 404.798 70.67C404.621 70.502 404.532 70.278 404.532 69.998C404.532 69.7273 404.621 69.508 404.798 69.34C404.975 69.172 405.209 69.088 405.498 69.088C405.787 69.088 406.021 69.172 406.198 69.34C406.375 69.508 406.464 69.7273 406.464 69.998C406.464 70.278 406.375 70.502 406.198 70.67C406.021 70.838 405.787 70.922 405.498 70.922ZM411.22 79.168C410.595 79.168 410.03 79.028 409.526 78.748C409.031 78.4587 408.635 78.048 408.336 77.516C408.047 76.9747 407.902 76.326 407.902 75.57C407.902 74.8047 408.061 74.156 408.378 73.624C408.695 73.0827 409.115 72.672 409.638 72.392C410.17 72.1027 410.739 71.958 411.346 71.958C411.785 71.958 412.167 72.0327 412.494 72.182C412.821 72.3313 413.11 72.5133 413.362 72.728L412.578 73.778C412.401 73.6193 412.219 73.498 412.032 73.414C411.845 73.3207 411.645 73.274 411.43 73.274C410.879 73.274 410.427 73.484 410.072 73.904C409.727 74.324 409.554 74.8793 409.554 75.57C409.554 76.2513 409.722 76.802 410.058 77.222C410.403 77.642 410.847 77.852 411.388 77.852C411.659 77.852 411.911 77.796 412.144 77.684C412.387 77.5627 412.606 77.4227 412.802 77.264L413.46 78.328C413.143 78.608 412.788 78.818 412.396 78.958C412.004 79.098 411.612 79.168 411.22 79.168Z" fill="white"/>
<rect x="295" y="100" width="205" height="5" rx="2.5" fill="#CBD5E0"/>
<rect x="295" y="100" width="163.556" height="5" rx="2.5" fill="#EC57A8"/>
<rect x="295" y="100" width="140.984" height="5" rx="2.5" fill="#5B5AF7"/>
<rect x="295" y="123" width="180" height="5" rx="2.5" fill="#CBD5E0"/>
<rect x="295" y="123" width="143.61" height="5" rx="2.5" fill="#EC57A8"/>
<rect x="295" y="123" width="123.791" height="5" rx="2.5" fill="#5B5AF7"/>
<rect x="295" y="146" width="115" height="5" rx="2.5" fill="#CBD5E0"/>
<rect x="295" y="146" width="91.7509" height="5" rx="2.5" fill="#EC57A8"/>
<rect x="295" y="146" width="79.0884" height="5" rx="2.5" fill="#5B5AF7"/>
<rect x="295" y="169" width="189" height="5" rx="2.5" fill="#CBD5E0"/>
<rect x="295" y="169" width="150.791" height="5" rx="2.5" fill="#EC57A8"/>
<rect x="295" y="169" width="129.98" height="5" rx="2.5" fill="#5B5AF7"/>
<rect x="295" y="192" width="85" height="5" rx="2.5" fill="#CBD5E0"/>
<rect x="295" y="192" width="67.8159" height="5" rx="2.5" fill="#EC57A8"/>
<rect x="295" y="192" width="58.4567" height="5" rx="2.5" fill="#5B5AF7"/>
<rect x="295" y="215" width="136" height="5" rx="2.5" fill="#CBD5E0"/>
<rect x="295" y="215" width="108.505" height="5" rx="2.5" fill="#EC57A8"/>
<rect x="295" y="215" width="93.5307" height="5" rx="2.5" fill="#5B5AF7"/>
<rect x="295" y="238" width="115" height="5" rx="2.5" fill="#CBD5E0"/>
<rect x="295" y="238" width="91.7509" height="5" rx="2.5" fill="#EC57A8"/>
<rect x="295" y="238" width="79.0884" height="5" rx="2.5" fill="#5B5AF7"/>
<rect x="295" y="261" width="205" height="5" rx="2.5" fill="#CBD5E0"/>
<rect x="295" y="261" width="163.556" height="5" rx="2.5" fill="#EC57A8"/>
<rect x="295" y="261" width="140.984" height="5" rx="2.5" fill="#5B5AF7"/>
<rect x="295" y="284" width="115" height="5" rx="2.5" fill="#CBD5E0"/>
<rect x="295" y="284" width="91.7509" height="5" rx="2.5" fill="#EC57A8"/>
<rect x="295" y="284" width="79.0884" height="5" rx="2.5" fill="#5B5AF7"/>
</svg>
