<svg width="545" height="345" viewBox="0 0 545 345" fill="none" xmlns="http://www.w3.org/2000/svg">
<rect width="545" height="345" rx="12" fill="#3E3E3E"/>
<path d="M112.074 40.104V29.144H113.594L113.722 29.976H113.786C114.117 29.6987 114.485 29.4587 114.89 29.256C115.306 29.0534 115.728 28.952 116.154 28.952C117.136 28.952 117.893 29.3147 118.426 30.04C118.97 30.7654 119.242 31.736 119.242 32.952C119.242 33.848 119.082 34.616 118.762 35.256C118.442 35.8854 118.026 36.3654 117.514 36.696C117.013 37.0267 116.469 37.192 115.882 37.192C115.541 37.192 115.2 37.1174 114.858 36.968C114.517 36.808 114.186 36.5947 113.866 36.328L113.914 37.64V40.104H112.074ZM115.498 35.672C116.021 35.672 116.458 35.4427 116.81 34.984C117.162 34.5254 117.338 33.8534 117.338 32.968C117.338 32.1787 117.205 31.5654 116.938 31.128C116.672 30.6907 116.24 30.472 115.642 30.472C115.088 30.472 114.512 30.7654 113.914 31.352V35.016C114.202 35.2507 114.48 35.4214 114.746 35.528C115.013 35.624 115.264 35.672 115.498 35.672Z" fill="white"/>
<path d="M105.728 37.192C105.046 37.192 104.486 36.9787 104.048 36.552C103.622 36.1254 103.408 35.5707 103.408 34.888C103.408 34.0454 103.776 33.3947 104.512 32.936C105.248 32.4667 106.422 32.1467 108.032 31.976C108.022 31.56 107.91 31.2027 107.696 30.904C107.494 30.5947 107.126 30.44 106.592 30.44C106.208 30.44 105.83 30.5147 105.456 30.664C105.094 30.8134 104.736 30.9947 104.384 31.208L103.712 29.976C104.15 29.6987 104.64 29.4587 105.184 29.256C105.739 29.0534 106.326 28.952 106.944 28.952C107.926 28.952 108.656 29.2454 109.136 29.832C109.627 30.408 109.872 31.2454 109.872 32.344V37H108.352L108.224 36.136H108.16C107.808 36.4347 107.43 36.6854 107.024 36.888C106.63 37.0907 106.198 37.192 105.728 37.192ZM106.32 35.752C106.64 35.752 106.928 35.6774 107.184 35.528C107.451 35.368 107.734 35.1547 108.032 34.888V33.128C106.966 33.2667 106.224 33.4747 105.808 33.752C105.392 34.0187 105.184 34.3494 105.184 34.744C105.184 35.096 105.291 35.352 105.504 35.512C105.718 35.672 105.99 35.752 106.32 35.752Z" fill="white"/>
<path d="M92.062 37V26.536H94.158L96.014 31.656C96.1313 31.9867 96.2433 32.328 96.35 32.68C96.4673 33.0213 96.5793 33.3627 96.686 33.704H96.75C96.8673 33.3627 96.9793 33.0213 97.086 32.68C97.1927 32.328 97.2993 31.9867 97.406 31.656L99.214 26.536H101.326V37H99.614V32.216C99.614 31.8853 99.6247 31.528 99.646 31.144C99.678 30.7493 99.71 30.3547 99.742 29.96C99.7847 29.5653 99.822 29.208 99.854 28.888H99.79L98.942 31.32L97.23 36.024H96.126L94.398 31.32L93.566 28.888H93.502C93.534 29.208 93.566 29.5653 93.598 29.96C93.6407 30.3547 93.6727 30.7493 93.694 31.144C93.726 31.528 93.742 31.8853 93.742 32.216V37H92.062Z" fill="white"/>
<path d="M81.3053 40.232C81.0919 40.232 80.9053 40.216 80.7453 40.184C80.5853 40.152 80.4306 40.1147 80.2813 40.072L80.6173 38.632C80.6919 38.6534 80.7773 38.6747 80.8733 38.696C80.9799 38.728 81.0813 38.744 81.1773 38.744C81.5933 38.744 81.9239 38.616 82.1693 38.36C82.4253 38.1147 82.6173 37.7947 82.7453 37.4L82.8893 36.904L79.8013 29.144H81.6733L83.0333 33C83.1506 33.3414 83.2626 33.704 83.3693 34.088C83.4866 34.4614 83.6039 34.8347 83.7213 35.208H83.7853C83.8813 34.8454 83.9773 34.4774 84.0733 34.104C84.1799 33.72 84.2813 33.352 84.3773 33L85.5613 29.144H87.3373L84.4893 37.352C84.1586 38.2374 83.7586 38.936 83.2893 39.448C82.8199 39.9707 82.1586 40.232 81.3053 40.232Z" fill="white"/>
<path d="M76.0278 37.192C75.3024 37.192 74.6464 37.032 74.0598 36.712C73.4731 36.3814 73.0091 35.912 72.6678 35.304C72.3264 34.6854 72.1558 33.944 72.1558 33.08C72.1558 32.2267 72.3264 31.4907 72.6678 30.872C73.0198 30.2534 73.4731 29.7787 74.0278 29.448C74.5824 29.1174 75.1638 28.952 75.7718 28.952C76.4864 28.952 77.0838 29.112 77.5638 29.432C78.0438 29.7414 78.4064 30.1787 78.6518 30.744C78.8971 31.2987 79.0198 31.944 79.0198 32.68C79.0198 33.064 78.9931 33.3627 78.9398 33.576H73.9478C74.0331 34.2694 74.2838 34.808 74.6998 35.192C75.1158 35.576 75.6384 35.768 76.2678 35.768C76.6091 35.768 76.9238 35.72 77.2118 35.624C77.5104 35.5174 77.8038 35.3734 78.0918 35.192L78.7158 36.344C78.3424 36.5894 77.9264 36.792 77.4678 36.952C77.0091 37.112 76.5291 37.192 76.0278 37.192ZM73.9318 32.328H77.4198C77.4198 31.72 77.2864 31.2454 77.0198 30.904C76.7531 30.552 76.3531 30.376 75.8198 30.376C75.3611 30.376 74.9504 30.5467 74.5878 30.888C74.2358 31.2187 74.0171 31.6987 73.9318 32.328Z" fill="white"/>
<path d="M63.7148 37V29.144H65.2348L65.3628 30.2H65.4268C65.7788 29.8587 66.1628 29.5654 66.5788 29.32C66.9948 29.0747 67.4695 28.952 68.0028 28.952C68.8455 28.952 69.4588 29.224 69.8428 29.768C70.2268 30.312 70.4188 31.08 70.4188 32.072V37H68.5788V32.312C68.5788 31.6614 68.4828 31.2027 68.2908 30.936C68.0988 30.6694 67.7842 30.536 67.3468 30.536C67.0055 30.536 66.7015 30.6214 66.4348 30.792C66.1788 30.952 65.8855 31.192 65.5548 31.512V37H63.7148Z" fill="white"/>
<path d="M57.7461 37V29.144H59.2661L59.3941 30.536H59.4581C59.7354 30.024 60.0714 29.6347 60.4661 29.368C60.8608 29.0907 61.2661 28.952 61.6821 28.952C62.0554 28.952 62.3541 29.0054 62.5781 29.112L62.2581 30.712C62.1194 30.6694 61.9914 30.6374 61.8741 30.616C61.7568 30.5947 61.6128 30.584 61.4421 30.584C61.1328 30.584 60.8074 30.7067 60.4661 30.952C60.1248 31.1867 59.8314 31.6027 59.5861 32.2V37H57.7461Z" fill="white"/>
<path d="M51.1914 37.192C50.3487 37.192 49.7354 36.92 49.3514 36.376C48.9674 35.832 48.7754 35.064 48.7754 34.072V29.144H50.6154V33.832C50.6154 34.4827 50.7114 34.9414 50.9034 35.208C51.0954 35.4747 51.4047 35.608 51.8314 35.608C52.1727 35.608 52.4714 35.5227 52.7274 35.352C52.9941 35.1814 53.2767 34.904 53.5754 34.52V29.144H55.4154V37H53.9114L53.7674 35.848H53.7194C53.3781 36.2534 53.0047 36.5787 52.5994 36.824C52.1941 37.0694 51.7247 37.192 51.1914 37.192Z" fill="white"/>
<path d="M43.29 37.192C42.6393 37.192 42.0313 37.032 41.466 36.712C40.9007 36.3814 40.442 35.912 40.09 35.304C39.738 34.6854 39.562 33.944 39.562 33.08C39.562 32.2054 39.738 31.464 40.09 30.856C40.442 30.2374 40.9007 29.768 41.466 29.448C42.0313 29.1174 42.6393 28.952 43.29 28.952C43.9513 28.952 44.5647 29.1174 45.13 29.448C45.6953 29.768 46.154 30.2374 46.506 30.856C46.858 31.464 47.034 32.2054 47.034 33.08C47.034 33.944 46.858 34.6854 46.506 35.304C46.154 35.912 45.6953 36.3814 45.13 36.712C44.5647 37.032 43.9513 37.192 43.29 37.192ZM43.29 35.688C43.866 35.688 44.3193 35.448 44.65 34.968C44.9807 34.488 45.146 33.8587 45.146 33.08C45.146 32.2907 44.9807 31.656 44.65 31.176C44.3193 30.696 43.866 30.456 43.29 30.456C42.714 30.456 42.2607 30.696 41.93 31.176C41.61 31.656 41.45 32.2907 41.45 33.08C41.45 33.8587 41.61 34.488 41.93 34.968C42.2607 35.448 42.714 35.688 43.29 35.688Z" fill="white"/>
<path d="M34.5038 37.192C33.7785 37.192 33.1598 37.0427 32.6478 36.744C32.1358 36.4453 31.7145 36.0027 31.3838 35.416L32.6638 34.472C32.8771 34.856 33.1225 35.1387 33.3998 35.32C33.6771 35.4907 33.9758 35.576 34.2958 35.576C34.7865 35.576 35.1545 35.4267 35.3998 35.128C35.6451 34.8293 35.7678 34.3067 35.7678 33.56V26.536H37.6238V33.72C37.6238 34.3493 37.5171 34.9307 37.3038 35.464C37.0905 35.9867 36.7545 36.408 36.2958 36.728C35.8371 37.0373 35.2398 37.192 34.5038 37.192Z" fill="white"/>
<rect x="31.5" y="56.5" width="232" height="263" rx="7.5" stroke="#5D5D5D"/>
<path d="M72.9834 79.168C72.5167 79.168 72.0501 79.0793 71.5834 78.902C71.1167 78.7153 70.7154 78.4867 70.3794 78.216L71.1354 77.18C71.4434 77.4133 71.7514 77.6 72.0594 77.74C72.3674 77.88 72.6941 77.95 73.0394 77.95C73.4127 77.95 73.6881 77.8707 73.8654 77.712C74.0427 77.5533 74.1314 77.3573 74.1314 77.124C74.1314 76.928 74.0567 76.7693 73.9074 76.648C73.7674 76.5173 73.5854 76.4053 73.3614 76.312C73.1374 76.2093 72.9041 76.1113 72.6614 76.018C72.3627 75.906 72.0641 75.7707 71.7654 75.612C71.4761 75.444 71.2381 75.234 71.0514 74.982C70.8647 74.7207 70.7714 74.3987 70.7714 74.016C70.7714 73.4093 70.9954 72.9147 71.4434 72.532C71.8914 72.1493 72.4981 71.958 73.2634 71.958C73.7487 71.958 74.1827 72.042 74.5654 72.21C74.9481 72.378 75.2794 72.5693 75.5594 72.784L74.8174 73.764C74.5747 73.5867 74.3274 73.4467 74.0754 73.344C73.8327 73.232 73.5761 73.176 73.3054 73.176C72.9601 73.176 72.7034 73.2507 72.5354 73.4C72.3674 73.54 72.2834 73.7173 72.2834 73.932C72.2834 74.2027 72.4234 74.408 72.7034 74.548C72.9834 74.688 73.3101 74.8233 73.6834 74.954C74.0007 75.066 74.3087 75.206 74.6074 75.374C74.9061 75.5327 75.1534 75.7427 75.3494 76.004C75.5547 76.2653 75.6574 76.6107 75.6574 77.04C75.6574 77.628 75.4287 78.132 74.9714 78.552C74.5141 78.9627 73.8514 79.168 72.9834 79.168Z" fill="white"/>
<path d="M63.2178 81.716V72.126H64.5478L64.6598 72.854H64.7158C65.0051 72.6113 65.3271 72.4013 65.6818 72.224C66.0458 72.0467 66.4144 71.958 66.7878 71.958C67.6464 71.958 68.3091 72.2753 68.7758 72.91C69.2518 73.5447 69.4898 74.394 69.4898 75.458C69.4898 76.242 69.3498 76.914 69.0698 77.474C68.7898 78.0247 68.4258 78.4447 67.9778 78.734C67.5391 79.0233 67.0631 79.168 66.5498 79.168C66.2511 79.168 65.9524 79.1027 65.6538 78.972C65.3551 78.832 65.0658 78.6453 64.7858 78.412L64.8278 79.56V81.716H63.2178ZM66.2138 77.838C66.6711 77.838 67.0538 77.6373 67.3618 77.236C67.6698 76.8347 67.8238 76.2467 67.8238 75.472C67.8238 74.7813 67.7071 74.2447 67.4738 73.862C67.2404 73.4793 66.8624 73.288 66.3398 73.288C65.8544 73.288 65.3504 73.5447 64.8278 74.058V77.264C65.0798 77.4693 65.3224 77.6187 65.5558 77.712C65.7891 77.796 66.0084 77.838 66.2138 77.838Z" fill="white"/>
<path d="M59.0618 79.168C58.4272 79.168 57.8532 79.028 57.3398 78.748C56.8265 78.4587 56.4205 78.048 56.1218 77.516C55.8232 76.9747 55.6738 76.326 55.6738 75.57C55.6738 74.8233 55.8232 74.1793 56.1218 73.638C56.4298 73.0967 56.8265 72.6813 57.3118 72.392C57.7972 72.1027 58.3058 71.958 58.8378 71.958C59.4632 71.958 59.9858 72.098 60.4058 72.378C60.8258 72.6487 61.1432 73.0313 61.3578 73.526C61.5725 74.0113 61.6798 74.576 61.6798 75.22C61.6798 75.556 61.6565 75.8173 61.6098 76.004H57.2418C57.3165 76.6107 57.5358 77.082 57.8998 77.418C58.2638 77.754 58.7212 77.922 59.2718 77.922C59.5705 77.922 59.8458 77.88 60.0978 77.796C60.3592 77.7027 60.6158 77.5767 60.8678 77.418L61.4138 78.426C61.0872 78.6407 60.7232 78.818 60.3218 78.958C59.9205 79.098 59.5005 79.168 59.0618 79.168ZM57.2278 74.912H60.2798C60.2798 74.38 60.1632 73.9647 59.9298 73.666C59.6965 73.358 59.3465 73.204 58.8798 73.204C58.4785 73.204 58.1192 73.3533 57.8018 73.652C57.4938 73.9413 57.3025 74.3613 57.2278 74.912Z" fill="white"/>
<path d="M53.704 79.168C52.9107 79.168 52.346 78.9393 52.01 78.482C51.6834 78.0153 51.52 77.4133 51.52 76.676V73.4H50.54V72.196L51.604 72.126L51.8 70.25H53.144V72.126H54.894V73.4H53.144V76.676C53.144 77.4787 53.466 77.88 54.11 77.88C54.2314 77.88 54.3574 77.866 54.488 77.838C54.6187 77.8007 54.7307 77.7633 54.824 77.726L55.104 78.916C54.9174 78.9813 54.7027 79.0373 54.46 79.084C54.2267 79.14 53.9747 79.168 53.704 79.168Z" fill="white"/>
<path d="M46.8362 79.168C46.2202 79.168 45.6229 79.0514 45.0442 78.818C44.4749 78.5847 43.9709 78.2534 43.5322 77.824L44.4842 76.718C44.8109 77.026 45.1842 77.278 45.6042 77.474C46.0242 77.6607 46.4442 77.754 46.8642 77.754C47.3869 77.754 47.7836 77.6467 48.0542 77.432C48.3249 77.2174 48.4602 76.9327 48.4602 76.578C48.4602 76.1954 48.3249 75.92 48.0542 75.752C47.7929 75.584 47.4569 75.4114 47.0462 75.234L45.7862 74.688C45.4876 74.5574 45.1936 74.3894 44.9042 74.184C44.6242 73.9787 44.3909 73.7174 44.2042 73.4C44.0269 73.0827 43.9382 72.7 43.9382 72.252C43.9382 71.7667 44.0689 71.3327 44.3302 70.95C44.6009 70.558 44.9649 70.25 45.4222 70.026C45.8889 69.7927 46.4209 69.676 47.0182 69.676C47.5502 69.676 48.0636 69.7834 48.5582 69.998C49.0529 70.2034 49.4776 70.4834 49.8322 70.838L49.0062 71.874C48.7169 71.6314 48.4089 71.44 48.0822 71.3C47.7649 71.16 47.4102 71.09 47.0182 71.09C46.5889 71.09 46.2389 71.188 45.9682 71.384C45.7069 71.5707 45.5762 71.832 45.5762 72.168C45.5762 72.4014 45.6416 72.5974 45.7722 72.756C45.9122 72.9054 46.0942 73.036 46.3182 73.148C46.5422 73.2507 46.7802 73.3534 47.0322 73.456L48.2782 73.974C48.8196 74.2074 49.2629 74.5154 49.6082 74.898C49.9536 75.2714 50.1262 75.7894 50.1262 76.452C50.1262 76.9467 49.9956 77.3994 49.7342 77.81C49.4729 78.2207 49.0949 78.552 48.6002 78.804C48.1149 79.0467 47.5269 79.168 46.8362 79.168Z" fill="white"/>
<path d="M46 98C46 95.7909 47.7909 94 50 94H244C246.209 94 248 95.7909 248 98V104C248 106.209 246.209 108 244 108H50C47.7909 108 46 106.209 46 104V98Z" fill="#6D6D6D"/>
<path d="M46 125.998V124.964H47.562V120.366H46.275V119.574C46.6197 119.508 46.9203 119.431 47.177 119.343C47.4337 119.248 47.672 119.134 47.892 119.002H48.838V124.964H50.213V125.998H46Z" fill="white"/>
<rect x="65.2129" y="117" width="48" height="11" rx="4" fill="#41CDFB" fill-opacity="0.64"/>
<path fill-rule="evenodd" clip-rule="evenodd" d="M74.7129 123C74.7129 122.172 75.3845 121.5 76.2129 121.5H102.213C103.041 121.5 103.713 122.172 103.713 123C103.713 123.828 103.041 124.5 102.213 124.5H76.2129C75.3845 124.5 74.7129 123.828 74.7129 123Z" fill="#E3E3E3"/>
<path fill-rule="evenodd" clip-rule="evenodd" d="M128.213 122.5C128.213 121.672 128.884 121 129.713 121H155.713C156.541 121 157.213 121.672 157.213 122.5C157.213 123.328 156.541 124 155.713 124H129.713C128.884 124 128.213 123.328 128.213 122.5Z" fill="#E3E3E3"/>
<rect x="172.713" y="117.5" width="47" height="10" rx="5" stroke="#EC57A8"/>
<path d="M46.055 145.064V144.327C46.7077 143.696 47.2687 143.135 47.738 142.644C48.2147 142.145 48.5813 141.694 48.838 141.291C49.0947 140.88 49.223 140.499 49.223 140.147C49.223 139.78 49.124 139.487 48.926 139.267C48.728 139.047 48.442 138.937 48.068 138.937C47.7967 138.937 47.5473 139.014 47.32 139.168C47.1 139.322 46.8947 139.505 46.704 139.718L46 139.014C46.3227 138.669 46.6563 138.405 47.001 138.222C47.3457 138.031 47.7563 137.936 48.233 137.936C48.9077 137.936 49.443 138.13 49.839 138.519C50.2423 138.908 50.444 139.428 50.444 140.081C50.444 140.492 50.3267 140.913 50.092 141.346C49.8647 141.771 49.5567 142.208 49.168 142.655C48.7867 143.102 48.365 143.572 47.903 144.063C48.0863 144.048 48.2843 144.034 48.497 144.019C48.7097 143.997 48.9003 143.986 49.069 143.986H50.785V145.064H46.055Z" fill="white"/>
<rect x="65.7852" y="136" width="48" height="11" rx="4" fill="#41CDFB" fill-opacity="0.64"/>
<path fill-rule="evenodd" clip-rule="evenodd" d="M75.2852 142C75.2852 141.172 75.9567 140.5 76.7852 140.5H102.785C103.614 140.5 104.285 141.172 104.285 142C104.285 142.828 103.614 143.5 102.785 143.5H76.7852C75.9567 143.5 75.2852 142.828 75.2852 142Z" fill="#E3E3E3"/>
<path fill-rule="evenodd" clip-rule="evenodd" d="M128.785 141.5C128.785 140.672 129.457 140 130.285 140H156.285C157.114 140 157.785 140.672 157.785 141.5C157.785 142.328 157.114 143 156.285 143H130.285C129.457 143 128.785 142.328 128.785 141.5Z" fill="#E3E3E3"/>
<rect x="173.285" y="136.5" width="47" height="10" rx="5" stroke="#EC57A8"/>
<path d="M48.376 164.13C47.8113 164.13 47.3347 164.035 46.946 163.844C46.5647 163.646 46.2493 163.411 46 163.14L46.605 162.326C46.8177 162.539 47.0597 162.722 47.331 162.876C47.6023 163.023 47.914 163.096 48.266 163.096C48.6473 163.096 48.9553 163.004 49.19 162.821C49.432 162.63 49.553 162.37 49.553 162.04C49.553 161.798 49.4907 161.589 49.366 161.413C49.2487 161.23 49.0397 161.09 48.739 160.995C48.4457 160.9 48.0313 160.852 47.496 160.852V159.928C48.1853 159.928 48.662 159.822 48.926 159.609C49.19 159.396 49.322 159.129 49.322 158.806C49.322 158.513 49.2303 158.285 49.047 158.124C48.8637 157.955 48.6107 157.871 48.288 157.871C48.0167 157.871 47.7673 157.933 47.54 158.058C47.3127 158.175 47.0927 158.333 46.88 158.531L46.231 157.75C46.5317 157.486 46.8507 157.273 47.188 157.112C47.5327 156.951 47.914 156.87 48.332 156.87C49.0067 156.87 49.553 157.031 49.971 157.354C50.389 157.669 50.598 158.124 50.598 158.718C50.598 159.107 50.488 159.437 50.268 159.708C50.0553 159.972 49.7583 160.177 49.377 160.324V160.368C49.7877 160.478 50.1323 160.68 50.411 160.973C50.6897 161.266 50.829 161.644 50.829 162.106C50.829 162.531 50.7153 162.894 50.488 163.195C50.268 163.496 49.971 163.727 49.597 163.888C49.2303 164.049 48.8233 164.13 48.376 164.13Z" fill="white"/>
<rect x="65.8291" y="155" width="48" height="11" rx="4" fill="#41CDFB" fill-opacity="0.64"/>
<path fill-rule="evenodd" clip-rule="evenodd" d="M75.3291 161C75.3291 160.172 76.0007 159.5 76.8291 159.5H102.829C103.658 159.5 104.329 160.172 104.329 161C104.329 161.828 103.658 162.5 102.829 162.5H76.8291C76.0007 162.5 75.3291 161.828 75.3291 161Z" fill="#E3E3E3"/>
<path fill-rule="evenodd" clip-rule="evenodd" d="M128.829 160.5C128.829 159.672 129.501 159 130.329 159H156.329C157.158 159 157.829 159.672 157.829 160.5C157.829 161.328 157.158 162 156.329 162H130.329C129.501 162 128.829 161.328 128.829 160.5Z" fill="#E3E3E3"/>
<rect x="173.329" y="155.5" width="47" height="10" rx="5" stroke="#EC57A8"/>
<path d="M47.254 180.215H49.091V178.631C49.091 178.426 49.0983 178.184 49.113 177.905C49.1277 177.626 49.1387 177.384 49.146 177.179H49.102C49.014 177.362 48.9223 177.542 48.827 177.718C48.7317 177.894 48.6327 178.077 48.53 178.268L47.254 180.215ZM49.091 182.998V181.194H46V180.336L48.772 176.002H50.279V180.215H51.159V181.194H50.279V182.998H49.091Z" fill="white"/>
<rect x="66.1592" y="174" width="48" height="11" rx="4" fill="#41CDFB" fill-opacity="0.64"/>
<path fill-rule="evenodd" clip-rule="evenodd" d="M75.6592 180C75.6592 179.172 76.3308 178.5 77.1592 178.5H103.159C103.988 178.5 104.659 179.172 104.659 180C104.659 180.828 103.988 181.5 103.159 181.5H77.1592C76.3308 181.5 75.6592 180.828 75.6592 180Z" fill="#E3E3E3"/>
<path fill-rule="evenodd" clip-rule="evenodd" d="M129.159 179.5C129.159 178.672 129.831 178 130.659 178H156.659C157.488 178 158.159 178.672 158.159 179.5C158.159 180.328 157.488 181 156.659 181H130.659C129.831 181 129.159 180.328 129.159 179.5Z" fill="#E3E3E3"/>
<rect x="173.659" y="174.5" width="47" height="10" rx="5" stroke="#EC57A8"/>
<path d="M48.387 202.064C47.8223 202.064 47.3457 201.969 46.957 201.778C46.5757 201.58 46.2567 201.353 46 201.096L46.583 200.282C46.7957 200.48 47.034 200.656 47.298 200.81C47.562 200.957 47.87 201.03 48.222 201.03C48.6107 201.03 48.9333 200.913 49.19 200.678C49.4467 200.443 49.575 200.113 49.575 199.688C49.575 199.27 49.4577 198.947 49.223 198.72C48.9883 198.493 48.6767 198.379 48.288 198.379C48.0607 198.379 47.87 198.412 47.716 198.478C47.562 198.537 47.3787 198.636 47.166 198.775L46.561 198.39L46.77 194.936H50.51V196.003H47.87L47.727 197.697C47.8737 197.624 48.0167 197.569 48.156 197.532C48.3027 197.488 48.4677 197.466 48.651 197.466C49.0543 197.466 49.421 197.543 49.751 197.697C50.081 197.851 50.345 198.089 50.543 198.412C50.7483 198.735 50.851 199.149 50.851 199.655C50.851 200.161 50.7337 200.594 50.499 200.953C50.2717 201.312 49.971 201.587 49.597 201.778C49.223 201.969 48.8197 202.064 48.387 202.064Z" fill="white"/>
<rect x="65.8511" y="193" width="48" height="11" rx="4" fill="#41CDFB" fill-opacity="0.64"/>
<path fill-rule="evenodd" clip-rule="evenodd" d="M75.3511 199C75.3511 198.172 76.0226 197.5 76.8511 197.5H102.851C103.68 197.5 104.351 198.172 104.351 199C104.351 199.828 103.68 200.5 102.851 200.5H76.8511C76.0226 200.5 75.3511 199.828 75.3511 199Z" fill="#E3E3E3"/>
<path fill-rule="evenodd" clip-rule="evenodd" d="M128.851 198.5C128.851 197.672 129.523 197 130.351 197H156.351C157.18 197 157.851 197.672 157.851 198.5C157.851 199.328 157.18 200 156.351 200H130.351C129.523 200 128.851 199.328 128.851 198.5Z" fill="#E3E3E3"/>
<rect x="173.351" y="193.5" width="47" height="10" rx="5" stroke="#EC57A8"/>
<path d="M48.464 217.588C48.266 217.588 48.057 217.65 47.837 217.775C47.617 217.892 47.408 218.098 47.21 218.391C47.276 219.014 47.4263 219.465 47.661 219.744C47.8957 220.023 48.1817 220.162 48.519 220.162C48.8123 220.162 49.058 220.048 49.256 219.821C49.4613 219.586 49.564 219.256 49.564 218.831C49.564 218.42 49.465 218.112 49.267 217.907C49.0763 217.694 48.8087 217.588 48.464 217.588ZM48.541 221.13C48.0863 221.13 47.6647 221.009 47.276 220.767C46.8873 220.525 46.5757 220.151 46.341 219.645C46.1137 219.139 46 218.494 46 217.709C46 216.8 46.1283 216.066 46.385 215.509C46.649 214.944 46.99 214.53 47.408 214.266C47.826 214.002 48.2733 213.87 48.75 213.87C49.1753 213.87 49.542 213.947 49.85 214.101C50.158 214.255 50.4147 214.442 50.62 214.662L49.938 215.432C49.8133 215.278 49.6483 215.153 49.443 215.058C49.245 214.955 49.0397 214.904 48.827 214.904C48.5337 214.904 48.266 214.985 48.024 215.146C47.782 215.307 47.584 215.579 47.43 215.96C47.2833 216.334 47.199 216.844 47.177 217.489C47.3823 217.232 47.6243 217.031 47.903 216.884C48.1817 216.737 48.4457 216.664 48.695 216.664C49.3037 216.664 49.795 216.844 50.169 217.203C50.5503 217.555 50.741 218.098 50.741 218.831C50.741 219.293 50.6383 219.696 50.433 220.041C50.235 220.386 49.971 220.653 49.641 220.844C49.311 221.035 48.9443 221.13 48.541 221.13Z" fill="white"/>
<rect x="65.7412" y="212" width="48" height="11" rx="4" fill="#41CDFB" fill-opacity="0.64"/>
<path fill-rule="evenodd" clip-rule="evenodd" d="M75.2412 218C75.2412 217.172 75.9128 216.5 76.7412 216.5H102.741C103.57 216.5 104.241 217.172 104.241 218C104.241 218.828 103.57 219.5 102.741 219.5H76.7412C75.9128 219.5 75.2412 218.828 75.2412 218Z" fill="#E3E3E3"/>
<path fill-rule="evenodd" clip-rule="evenodd" d="M128.741 217.5C128.741 216.672 129.413 216 130.241 216H156.241C157.07 216 157.741 216.672 157.741 217.5C157.741 218.328 157.07 219 156.241 219H130.241C129.413 219 128.741 218.328 128.741 217.5Z" fill="#E3E3E3"/>
<rect x="173.241" y="212.5" width="47" height="10" rx="5" stroke="#EC57A8"/>
<path d="M47.364 239.998C47.408 239.169 47.496 238.429 47.628 237.776C47.76 237.116 47.9617 236.489 48.233 235.895C48.5043 235.301 48.8637 234.692 49.311 234.069H46V233.002H50.697V233.772C50.2863 234.278 49.9527 234.762 49.696 235.224C49.4467 235.686 49.2487 236.155 49.102 236.632C48.9627 237.101 48.86 237.611 48.794 238.161C48.728 238.704 48.6803 239.316 48.651 239.998H47.364Z" fill="white"/>
<rect x="65.6968" y="231" width="48" height="11" rx="4" fill="#41CDFB" fill-opacity="0.64"/>
<path fill-rule="evenodd" clip-rule="evenodd" d="M75.1968 237C75.1968 236.172 75.8684 235.5 76.6968 235.5H102.697C103.525 235.5 104.197 236.172 104.197 237C104.197 237.828 103.525 238.5 102.697 238.5H76.6968C75.8684 238.5 75.1968 237.828 75.1968 237Z" fill="#E3E3E3"/>
<path fill-rule="evenodd" clip-rule="evenodd" d="M128.697 236.5C128.697 235.672 129.368 235 130.197 235H156.197C157.025 235 157.697 235.672 157.697 236.5C157.697 237.328 157.025 238 156.197 238H130.197C129.368 238 128.697 237.328 128.697 236.5Z" fill="#E3E3E3"/>
<rect x="173.197" y="231.5" width="47" height="10" rx="5" stroke="#EC57A8"/>
<path d="M48.376 259.13C47.9213 259.13 47.5143 259.049 47.155 258.888C46.7957 258.719 46.5133 258.492 46.308 258.206C46.1027 257.92 46 257.586 46 257.205C46 256.772 46.1283 256.409 46.385 256.116C46.6417 255.823 46.935 255.588 47.265 255.412V255.368C46.9937 255.177 46.7627 254.95 46.572 254.686C46.3887 254.415 46.297 254.096 46.297 253.729C46.297 253.348 46.3887 253.021 46.572 252.75C46.7553 252.471 47.0047 252.255 47.32 252.101C47.6427 251.947 48.0057 251.87 48.409 251.87C49.0397 251.87 49.5383 252.046 49.905 252.398C50.279 252.743 50.466 253.197 50.466 253.762C50.466 254.107 50.367 254.418 50.169 254.697C49.971 254.976 49.7583 255.199 49.531 255.368V255.412C49.8537 255.595 50.136 255.826 50.378 256.105C50.62 256.384 50.741 256.758 50.741 257.227C50.741 257.586 50.642 257.909 50.444 258.195C50.246 258.481 49.971 258.708 49.619 258.877C49.267 259.046 48.8527 259.13 48.376 259.13ZM48.838 255.049C49.0287 254.858 49.1717 254.664 49.267 254.466C49.3697 254.268 49.421 254.059 49.421 253.839C49.421 253.531 49.3293 253.278 49.146 253.08C48.9627 252.875 48.7097 252.772 48.387 252.772C48.1157 252.772 47.8883 252.856 47.705 253.025C47.5217 253.194 47.43 253.428 47.43 253.729C47.43 253.964 47.4923 254.162 47.617 254.323C47.7417 254.477 47.9103 254.613 48.123 254.73C48.343 254.84 48.5813 254.946 48.838 255.049ZM48.398 258.228C48.7353 258.228 49.0103 258.136 49.223 257.953C49.443 257.762 49.553 257.506 49.553 257.183C49.553 256.926 49.476 256.717 49.322 256.556C49.1753 256.395 48.9737 256.255 48.717 256.138C48.4677 256.013 48.1853 255.889 47.87 255.764C47.65 255.925 47.4667 256.116 47.32 256.336C47.1807 256.556 47.111 256.802 47.111 257.073C47.111 257.418 47.2357 257.696 47.485 257.909C47.7343 258.122 48.0387 258.228 48.398 258.228Z" fill="white"/>
<rect x="65.7412" y="250" width="48" height="11" rx="4" fill="#41CDFB" fill-opacity="0.64"/>
<path fill-rule="evenodd" clip-rule="evenodd" d="M75.2412 256C75.2412 255.172 75.9128 254.5 76.7412 254.5H102.741C103.57 254.5 104.241 255.172 104.241 256C104.241 256.828 103.57 257.5 102.741 257.5H76.7412C75.9128 257.5 75.2412 256.828 75.2412 256Z" fill="#E3E3E3"/>
<path fill-rule="evenodd" clip-rule="evenodd" d="M128.741 255.5C128.741 254.672 129.413 254 130.241 254H156.241C157.07 254 157.741 254.672 157.741 255.5C157.741 256.328 157.07 257 156.241 257H130.241C129.413 257 128.741 256.328 128.741 255.5Z" fill="#E3E3E3"/>
<rect x="173.241" y="250.5" width="47" height="10" rx="5" stroke="#EC57A8"/>
<path d="M47.166 273.158C47.166 273.569 47.2613 273.88 47.452 274.093C47.65 274.306 47.925 274.412 48.277 274.412C48.4823 274.412 48.695 274.35 48.915 274.225C49.1423 274.093 49.3477 273.884 49.531 273.598C49.465 272.982 49.3147 272.535 49.08 272.256C48.8453 271.977 48.5557 271.838 48.211 271.838C47.925 271.838 47.6793 271.952 47.474 272.179C47.2687 272.406 47.166 272.733 47.166 273.158ZM47.98 278.13C47.562 278.13 47.199 278.053 46.891 277.899C46.583 277.745 46.3227 277.558 46.11 277.338L46.792 276.568C46.924 276.722 47.089 276.85 47.287 276.953C47.4923 277.048 47.7013 277.096 47.914 277.096C48.2073 277.096 48.475 277.015 48.717 276.854C48.959 276.693 49.157 276.425 49.311 276.051C49.465 275.67 49.5493 275.156 49.564 274.511C49.3587 274.76 49.1167 274.958 48.838 275.105C48.5593 275.252 48.2917 275.325 48.035 275.325C47.4337 275.325 46.9423 275.149 46.561 274.797C46.187 274.438 46 273.891 46 273.158C46 272.689 46.099 272.285 46.297 271.948C46.5023 271.603 46.77 271.339 47.1 271.156C47.4373 270.965 47.804 270.87 48.2 270.87C48.6547 270.87 49.0727 270.991 49.454 271.233C49.8427 271.475 50.1507 271.849 50.378 272.355C50.6127 272.854 50.73 273.495 50.73 274.28C50.73 275.182 50.6017 275.919 50.345 276.491C50.0883 277.056 49.751 277.47 49.333 277.734C48.915 277.998 48.464 278.13 47.98 278.13Z" fill="white"/>
<rect x="65.73" y="269" width="48" height="11" rx="4" fill="#41CDFB" fill-opacity="0.64"/>
<path fill-rule="evenodd" clip-rule="evenodd" d="M75.23 275C75.23 274.172 75.9016 273.5 76.73 273.5H102.73C103.558 273.5 104.23 274.172 104.23 275C104.23 275.828 103.558 276.5 102.73 276.5H76.73C75.9016 276.5 75.23 275.828 75.23 275Z" fill="#E3E3E3"/>
<path fill-rule="evenodd" clip-rule="evenodd" d="M128.73 274.5C128.73 273.672 129.402 273 130.23 273H156.23C157.058 273 157.73 273.672 157.73 274.5C157.73 275.328 157.058 276 156.23 276H130.23C129.402 276 128.73 275.328 128.73 274.5Z" fill="#E3E3E3"/>
<rect x="173.23" y="269.5" width="47" height="10" rx="5" stroke="#EC57A8"/>
<rect x="283.5" y="56.5" width="232" height="263" rx="7.5" stroke="#5D5D5D"/>
<path d="M335 79V72.126H336.33L336.442 73.064H336.498C336.788 72.756 337.1 72.4947 337.436 72.28C337.782 72.0653 338.169 71.958 338.598 71.958C339.102 71.958 339.504 72.07 339.802 72.294C340.11 72.5087 340.344 72.8073 340.502 73.19C340.829 72.8353 341.17 72.5413 341.524 72.308C341.888 72.0747 342.285 71.958 342.714 71.958C343.442 71.958 343.979 72.196 344.324 72.672C344.67 73.148 344.842 73.82 344.842 74.688V79H343.218V74.898C343.218 74.3287 343.13 73.9273 342.952 73.694C342.784 73.4607 342.523 73.344 342.168 73.344C341.739 73.344 341.258 73.6287 340.726 74.198V79H339.116V74.898C339.116 74.3287 339.028 73.9273 338.85 73.694C338.682 73.4607 338.416 73.344 338.052 73.344C337.623 73.344 337.142 73.6287 336.61 74.198V79H335Z" fill="white"/>
<path d="M329.448 79.168C328.851 79.168 328.361 78.9813 327.978 78.608C327.605 78.2347 327.418 77.7493 327.418 77.152C327.418 76.4147 327.74 75.8453 328.384 75.444C329.028 75.0333 330.055 74.7533 331.464 74.604C331.455 74.24 331.357 73.9273 331.17 73.666C330.993 73.3953 330.671 73.26 330.204 73.26C329.868 73.26 329.537 73.3253 329.21 73.456C328.893 73.5867 328.58 73.7453 328.272 73.932L327.684 72.854C328.067 72.6113 328.496 72.4013 328.972 72.224C329.457 72.0467 329.971 71.958 330.512 71.958C331.371 71.958 332.01 72.2147 332.43 72.728C332.859 73.232 333.074 73.9647 333.074 74.926V79H331.744L331.632 78.244H331.576C331.268 78.5053 330.937 78.7247 330.582 78.902C330.237 79.0793 329.859 79.168 329.448 79.168ZM329.966 77.908C330.246 77.908 330.498 77.8427 330.722 77.712C330.955 77.572 331.203 77.3853 331.464 77.152V75.612C330.531 75.7333 329.882 75.9153 329.518 76.158C329.154 76.3913 328.972 76.6807 328.972 77.026C328.972 77.334 329.065 77.558 329.252 77.698C329.439 77.838 329.677 77.908 329.966 77.908Z" fill="white"/>
<path d="M322.928 79V72.126H324.258L324.37 73.344H324.426C324.669 72.896 324.963 72.5553 325.308 72.322C325.654 72.0793 326.008 71.958 326.372 71.958C326.699 71.958 326.96 72.0047 327.156 72.098L326.876 73.498C326.755 73.4607 326.643 73.4327 326.54 73.414C326.438 73.3953 326.312 73.386 326.162 73.386C325.892 73.386 325.607 73.4933 325.308 73.708C325.01 73.9133 324.753 74.2773 324.538 74.8V79H322.928Z" fill="white"/>
<path d="M318.049 82.038C317.508 82.038 317.018 81.9727 316.579 81.842C316.15 81.7113 315.809 81.5107 315.557 81.24C315.314 80.9787 315.193 80.6473 315.193 80.246C315.193 79.6767 315.52 79.1867 316.173 78.776V78.72C315.996 78.608 315.846 78.4587 315.725 78.272C315.613 78.0853 315.557 77.852 315.557 77.572C315.557 77.3013 315.632 77.0587 315.781 76.844C315.94 76.62 316.117 76.438 316.313 76.298V76.242C316.08 76.0647 315.87 75.8173 315.683 75.5C315.506 75.1827 315.417 74.8233 315.417 74.422C315.417 73.89 315.543 73.442 315.795 73.078C316.047 72.714 316.378 72.4387 316.789 72.252C317.209 72.056 317.657 71.958 318.133 71.958C318.32 71.958 318.497 71.9767 318.665 72.014C318.842 72.042 319.001 72.0793 319.141 72.126H321.605V73.316H320.345C320.457 73.4467 320.55 73.6147 320.625 73.82C320.7 74.016 320.737 74.2353 320.737 74.478C320.737 74.982 320.62 75.4113 320.387 75.766C320.154 76.1113 319.841 76.3727 319.449 76.55C319.057 76.7273 318.618 76.816 318.133 76.816C317.984 76.816 317.83 76.802 317.671 76.774C317.512 76.746 317.354 76.6993 317.195 76.634C317.092 76.7273 317.008 76.8207 316.943 76.914C316.887 77.0073 316.859 77.1333 316.859 77.292C316.859 77.488 316.938 77.642 317.097 77.754C317.265 77.866 317.559 77.922 317.979 77.922H319.197C320.028 77.922 320.653 78.0573 321.073 78.328C321.502 78.5893 321.717 79.0187 321.717 79.616C321.717 80.064 321.568 80.47 321.269 80.834C320.97 81.2073 320.546 81.5013 319.995 81.716C319.444 81.9307 318.796 82.038 318.049 82.038ZM318.133 75.808C318.46 75.808 318.74 75.6867 318.973 75.444C319.206 75.2013 319.323 74.8607 319.323 74.422C319.323 73.9927 319.206 73.6613 318.973 73.428C318.749 73.1853 318.469 73.064 318.133 73.064C317.797 73.064 317.512 73.1807 317.279 73.414C317.046 73.6473 316.929 73.9833 316.929 74.422C316.929 74.8607 317.046 75.2013 317.279 75.444C317.512 75.6867 317.797 75.808 318.133 75.808ZM318.301 80.988C318.852 80.988 319.3 80.876 319.645 80.652C319.99 80.428 320.163 80.1713 320.163 79.882C320.163 79.6113 320.056 79.4293 319.841 79.336C319.636 79.2427 319.337 79.196 318.945 79.196H318.007C317.634 79.196 317.321 79.1633 317.069 79.098C316.714 79.3687 316.537 79.672 316.537 80.008C316.537 80.316 316.696 80.554 317.013 80.722C317.33 80.8993 317.76 80.988 318.301 80.988Z" fill="white"/>
<path d="M310.102 79.168C309.505 79.168 309.015 78.9813 308.632 78.608C308.259 78.2347 308.072 77.7493 308.072 77.152C308.072 76.4147 308.394 75.8453 309.038 75.444C309.682 75.0333 310.709 74.7533 312.118 74.604C312.109 74.24 312.011 73.9273 311.824 73.666C311.647 73.3953 311.325 73.26 310.858 73.26C310.522 73.26 310.191 73.3253 309.864 73.456C309.547 73.5867 309.234 73.7453 308.926 73.932L308.338 72.854C308.721 72.6113 309.15 72.4013 309.626 72.224C310.112 72.0467 310.625 71.958 311.166 71.958C312.025 71.958 312.664 72.2147 313.084 72.728C313.514 73.232 313.728 73.9647 313.728 74.926V79H312.398L312.286 78.244H312.23C311.922 78.5053 311.591 78.7247 311.236 78.902C310.891 79.0793 310.513 79.168 310.102 79.168ZM310.62 77.908C310.9 77.908 311.152 77.8427 311.376 77.712C311.61 77.572 311.857 77.3853 312.118 77.152V75.612C311.185 75.7333 310.536 75.9153 310.172 76.158C309.808 76.3913 309.626 76.6807 309.626 77.026C309.626 77.334 309.72 77.558 309.906 77.698C310.093 77.838 310.331 77.908 310.62 77.908Z" fill="white"/>
<path d="M304.772 79V72.126H306.382V79H304.772ZM305.584 70.922C305.295 70.922 305.061 70.838 304.884 70.67C304.707 70.502 304.618 70.278 304.618 69.998C304.618 69.7273 304.707 69.508 304.884 69.34C305.061 69.172 305.295 69.088 305.584 69.088C305.873 69.088 306.107 69.172 306.284 69.34C306.461 69.508 306.55 69.7273 306.55 69.998C306.55 70.278 306.461 70.502 306.284 70.67C306.107 70.838 305.873 70.922 305.584 70.922Z" fill="white"/>
<path d="M296.162 79V69.844H298.612C300.012 69.844 301.104 70.222 301.888 70.978C302.672 71.734 303.064 72.868 303.064 74.38C303.064 75.9013 302.677 77.054 301.902 77.838C301.127 78.6127 300.059 79 298.696 79H296.162ZM297.786 77.684H298.5C299.424 77.684 300.138 77.418 300.642 76.886C301.146 76.3447 301.398 75.5093 301.398 74.38C301.398 73.26 301.146 72.4433 300.642 71.93C300.138 71.4167 299.424 71.16 298.5 71.16H297.786V77.684Z" fill="white"/>
<rect x="295" y="97" width="35" height="12" rx="4" fill="#5B5AF7"/>
<path fill-rule="evenodd" clip-rule="evenodd" d="M303.5 103C303.5 102.172 304.172 101.5 305 101.5H319C319.828 101.5 320.5 102.172 320.5 103C320.5 103.828 319.828 104.5 319 104.5H305C304.172 104.5 303.5 103.828 303.5 103Z" fill="#E3E3E3"/>
<rect x="465" y="294" width="35" height="12" rx="4" fill="#EC57A8"/>
<path fill-rule="evenodd" clip-rule="evenodd" d="M473.5 300C473.5 299.172 474.172 298.5 475 298.5H489C489.828 298.5 490.5 299.172 490.5 300C490.5 300.828 489.828 301.5 489 301.5H475C474.172 301.5 473.5 300.828 473.5 300Z" fill="#E3E3E3"/>
<rect x="325.5" y="123.5" width="47" height="15" rx="3.5" stroke="#909090"/>
<rect x="390.5" y="123.5" width="47" height="15" rx="3.5" stroke="#909090"/>
<rect x="390.5" y="167.5" width="32" height="15" rx="3.5" stroke="#909090"/>
<rect x="442.5" y="155.5" width="32" height="15" rx="3.5" stroke="#909090"/>
<rect x="442.5" y="180.5" width="32" height="15" rx="3.5" stroke="#909090"/>
<rect x="397.5" y="229.5" width="32" height="15" rx="3.5" stroke="#909090"/>
<rect x="364.5" y="290.5" width="32" height="15" rx="3.5" stroke="#909090"/>
<rect x="442.5" y="229.5" width="32" height="15" rx="3.5" stroke="#909090"/>
<path d="M330 101.5C329.167 101.5 328.5 102.167 328.5 103C328.5 103.833 329.167 104.5 330 104.5C330.833 104.5 331.5 103.833 331.5 103C331.5 102.167 330.833 101.5 330 101.5Z" fill="white"/>
<path fill-rule="evenodd" clip-rule="evenodd" d="M330 101.75C329.305 101.75 328.75 102.305 328.75 103C328.75 103.695 329.305 104.25 330 104.25C330.695 104.25 331.25 103.695 331.25 103C331.25 102.305 330.695 101.75 330 101.75ZM328.25 103C328.25 102.029 329.029 101.25 330 101.25C330.886 101.25 331.612 101.898 331.733 102.75H345C347.347 102.75 349.25 104.653 349.25 107V122.396L350.414 121.232C350.512 121.135 350.67 121.135 350.768 121.232C350.865 121.33 350.865 121.488 350.768 121.586L349.177 123.177C349.079 123.274 348.921 123.274 348.823 123.177L347.232 121.586C347.135 121.488 347.135 121.33 347.232 121.232C347.33 121.135 347.488 121.135 347.586 121.232L348.75 122.396V107C348.75 104.929 347.071 103.25 345 103.25H331.733C331.612 104.102 330.886 104.75 330 104.75C329.029 104.75 328.25 103.971 328.25 103Z" fill="white"/>
<path d="M373 129.5C372.167 129.5 371.5 130.167 371.5 131C371.5 131.833 372.167 132.5 373 132.5C373.833 132.5 374.5 131.833 374.5 131C374.5 130.167 373.833 129.5 373 129.5Z" fill="white"/>
<path fill-rule="evenodd" clip-rule="evenodd" d="M388.586 129.232L390.177 130.823C390.274 130.921 390.274 131.079 390.177 131.177L388.586 132.768C388.488 132.865 388.33 132.865 388.232 132.768C388.135 132.67 388.135 132.512 388.232 132.414L389.396 131.25H374.733C374.612 132.102 373.886 132.75 373 132.75C372.029 132.75 371.25 131.971 371.25 131C371.25 130.029 372.029 129.25 373 129.25C373.886 129.25 374.612 129.898 374.733 130.75H389.396L388.232 129.586C388.135 129.488 388.135 129.33 388.232 129.232C388.33 129.135 388.488 129.135 388.586 129.232ZM373 129.75C372.305 129.75 371.75 130.305 371.75 131C371.75 131.695 372.305 132.25 373 132.25C373.695 132.25 374.25 131.695 374.25 131C374.25 130.305 373.695 129.75 373 129.75Z" fill="white"/>
<path d="M414 137.5C413.167 137.5 412.5 138.167 412.5 139C412.5 139.833 413.167 140.5 414 140.5C414.833 140.5 415.5 139.833 415.5 139C415.5 138.167 414.833 137.5 414 137.5Z" fill="white"/>
<path fill-rule="evenodd" clip-rule="evenodd" d="M414 137.75C413.305 137.75 412.75 138.305 412.75 139C412.75 139.695 413.305 140.25 414 140.25C414.695 140.25 415.25 139.695 415.25 139C415.25 138.305 414.695 137.75 414 137.75ZM412.25 139C412.25 138.029 413.029 137.25 414 137.25C414.972 137.25 415.75 138.029 415.75 139C415.75 139.886 415.102 140.612 414.25 140.733V149.25C414.25 151.459 412.459 153.25 410.25 153.25C408.317 153.25 406.75 154.817 406.75 156.75V166.396L407.914 165.232C408.012 165.135 408.17 165.135 408.268 165.232C408.366 165.33 408.366 165.488 408.268 165.586L406.677 167.177C406.579 167.274 406.421 167.274 406.323 167.177L404.732 165.586C404.635 165.488 404.635 165.33 404.732 165.232C404.83 165.135 404.988 165.135 405.086 165.232L406.25 166.396V156.75C406.25 154.541 408.041 152.75 410.25 152.75C412.183 152.75 413.75 151.183 413.75 149.25V140.733C412.899 140.612 412.25 139.886 412.25 139Z" fill="white"/>
<path d="M423 173.5C422.167 173.5 421.5 174.167 421.5 175C421.5 175.833 422.167 176.5 423 176.5C423.833 176.5 424.5 175.833 424.5 175C424.5 174.167 423.833 173.5 423 173.5Z" fill="white"/>
<path fill-rule="evenodd" clip-rule="evenodd" d="M440.586 161.232L442.177 162.823C442.274 162.921 442.274 163.079 442.177 163.177L440.586 164.768C440.488 164.865 440.33 164.865 440.232 164.768C440.135 164.67 440.135 164.512 440.232 164.414L441.396 163.25H436.5C434.429 163.25 432.75 164.929 432.75 167V171C432.75 173.347 430.847 175.25 428.5 175.25H424.733C424.612 176.102 423.886 176.75 423 176.75C422.029 176.75 421.25 175.971 421.25 175C421.25 174.029 422.029 173.25 423 173.25C423.886 173.25 424.612 173.898 424.733 174.75H428.5C430.571 174.75 432.25 173.071 432.25 171V167C432.25 164.653 434.153 162.75 436.5 162.75H441.396L440.232 161.586C440.135 161.488 440.135 161.33 440.232 161.232C440.33 161.135 440.488 161.135 440.586 161.232ZM423 173.75C422.305 173.75 421.75 174.305 421.75 175C421.75 175.695 422.305 176.25 423 176.25C423.695 176.25 424.25 175.695 424.25 175C424.25 174.305 423.695 173.75 423 173.75Z" fill="white"/>
<path d="M423 173.5C422.167 173.5 421.5 174.167 421.5 175C421.5 175.833 422.167 176.5 423 176.5C423.833 176.5 424.5 175.833 424.5 175C424.5 174.167 423.833 173.5 423 173.5Z" fill="white"/>
<path fill-rule="evenodd" clip-rule="evenodd" d="M423 173.75C422.305 173.75 421.75 174.305 421.75 175C421.75 175.695 422.305 176.25 423 176.25C423.695 176.25 424.25 175.695 424.25 175C424.25 174.305 423.695 173.75 423 173.75ZM421.25 175C421.25 174.029 422.029 173.25 423 173.25C423.886 173.25 424.612 173.898 424.733 174.75H428.5C430.847 174.75 432.75 176.653 432.75 179V184C432.75 186.071 434.429 187.75 436.5 187.75H441.396L440.232 186.586C440.135 186.488 440.135 186.33 440.232 186.232C440.33 186.135 440.488 186.135 440.586 186.232L442.177 187.823C442.274 187.921 442.274 188.079 442.177 188.177L440.586 189.768C440.488 189.865 440.33 189.865 440.232 189.768C440.135 189.67 440.135 189.512 440.232 189.414L441.396 188.25H436.5C434.153 188.25 432.25 186.347 432.25 184V179C432.25 176.929 430.571 175.25 428.5 175.25H424.733C424.612 176.102 423.886 176.75 423 176.75C422.029 176.75 421.25 175.971 421.25 175Z" fill="white"/>
<path d="M406.5 181.5C405.667 181.5 405 182.167 405 183C405 183.833 405.667 184.5 406.5 184.5C407.333 184.5 408 183.833 408 183C408 182.167 407.333 181.5 406.5 181.5Z" fill="white"/>
<path fill-rule="evenodd" clip-rule="evenodd" d="M406.5 181.75C405.805 181.75 405.25 182.305 405.25 183C405.25 183.695 405.805 184.25 406.5 184.25C407.195 184.25 407.75 183.695 407.75 183C407.75 182.305 407.195 181.75 406.5 181.75ZM404.75 183C404.75 182.029 405.529 181.25 406.5 181.25C407.471 181.25 408.25 182.029 408.25 183C408.25 183.886 407.602 184.612 406.75 184.733V202.5C406.75 204.295 408.205 205.75 410 205.75C412.071 205.75 413.75 207.429 413.75 209.5V228.396L414.914 227.232C415.012 227.135 415.17 227.135 415.268 227.232C415.365 227.33 415.365 227.488 415.268 227.586L413.677 229.177C413.579 229.274 413.421 229.274 413.323 229.177L411.732 227.586C411.635 227.488 411.635 227.33 411.732 227.232C411.83 227.135 411.988 227.135 412.086 227.232L413.25 228.396V209.5C413.25 207.705 411.795 206.25 410 206.25C407.929 206.25 406.25 204.571 406.25 202.5V184.733C405.398 184.612 404.75 183.886 404.75 183Z" fill="white"/>
<path d="M373 129.5C372.167 129.5 371.5 130.167 371.5 131C371.5 131.833 372.167 132.5 373 132.5C373.833 132.5 374.5 131.833 374.5 131C374.5 130.167 373.833 129.5 373 129.5Z" fill="white"/>
<path fill-rule="evenodd" clip-rule="evenodd" d="M373 129.75C372.305 129.75 371.75 130.305 371.75 131C371.75 131.695 372.305 132.25 373 132.25C373.695 132.25 374.25 131.695 374.25 131C374.25 130.305 373.695 129.75 373 129.75ZM371.25 131C371.25 130.029 372.029 129.25 373 129.25C373.886 129.25 374.612 129.898 374.733 130.75H376.5C378.847 130.75 380.75 132.653 380.75 135V289.396L381.914 288.232C382.012 288.135 382.17 288.135 382.268 288.232C382.365 288.33 382.365 288.488 382.268 288.586L380.677 290.177C380.579 290.274 380.421 290.274 380.323 290.177L378.732 288.586C378.635 288.488 378.635 288.33 378.732 288.232C378.83 288.135 378.988 288.135 379.086 288.232L380.25 289.396V135C380.25 132.929 378.571 131.25 376.5 131.25H374.733C374.612 132.102 373.886 132.75 373 132.75C372.029 132.75 371.25 131.971 371.25 131Z" fill="white"/>
<path d="M430 235.5C429.167 235.5 428.5 236.167 428.5 237C428.5 237.833 429.167 238.5 430 238.5C430.833 238.5 431.5 237.833 431.5 237C431.5 236.167 430.833 235.5 430 235.5Z" fill="white"/>
<path fill-rule="evenodd" clip-rule="evenodd" d="M440.586 235.232L442.177 236.823C442.274 236.921 442.274 237.079 442.177 237.177L440.586 238.768C440.488 238.865 440.33 238.865 440.232 238.768C440.135 238.67 440.135 238.512 440.232 238.414L441.396 237.25H431.733C431.612 238.102 430.886 238.75 430 238.75C429.029 238.75 428.25 237.971 428.25 237C428.25 236.029 429.029 235.25 430 235.25C430.886 235.25 431.612 235.898 431.733 236.75H441.396L440.232 235.586C440.135 235.488 440.135 235.33 440.232 235.232C440.33 235.135 440.488 235.135 440.586 235.232ZM430 235.75C429.305 235.75 428.75 236.305 428.75 237C428.75 237.695 429.305 238.25 430 238.25C430.695 238.25 431.25 237.695 431.25 237C431.25 236.305 430.695 235.75 430 235.75Z" fill="white"/>
<path d="M475 235.5C474.167 235.5 473.5 236.167 473.5 237C473.5 237.833 474.167 238.5 475 238.5C475.833 238.5 476.5 237.833 476.5 237C476.5 236.167 475.833 235.5 475 235.5Z" fill="white"/>
<path fill-rule="evenodd" clip-rule="evenodd" d="M475 235.75C474.305 235.75 473.75 236.305 473.75 237C473.75 237.695 474.305 238.25 475 238.25C475.695 238.25 476.25 237.695 476.25 237C476.25 236.305 475.695 235.75 475 235.75ZM473.25 237C473.25 236.029 474.029 235.25 475 235.25C475.886 235.25 476.612 235.898 476.733 236.75H478.5C480.847 236.75 482.75 238.653 482.75 241V293.396L483.914 292.232C484.012 292.135 484.17 292.135 484.268 292.232C484.365 292.33 484.365 292.488 484.268 292.586L482.677 294.177C482.579 294.274 482.421 294.274 482.323 294.177L480.732 292.586C480.635 292.488 480.635 292.33 480.732 292.232C480.83 292.135 480.988 292.135 481.086 292.232L482.25 293.396V241C482.25 238.929 480.571 237.25 478.5 237.25H476.733C476.612 238.102 475.886 238.75 475 238.75C474.029 238.75 473.25 237.971 473.25 237Z" fill="white"/>
<path d="M397 296.5C396.167 296.5 395.5 297.167 395.5 298C395.5 298.833 396.167 299.5 397 299.5C397.833 299.5 398.5 298.833 398.5 298C398.5 297.167 397.833 296.5 397 296.5Z" fill="white"/>
<path fill-rule="evenodd" clip-rule="evenodd" d="M397 296.75C396.305 296.75 395.75 297.305 395.75 298C395.75 298.695 396.305 299.25 397 299.25C397.695 299.25 398.25 298.695 398.25 298C398.25 297.305 397.695 296.75 397 296.75ZM395.25 298C395.25 297.029 396.029 296.25 397 296.25C397.886 296.25 398.612 296.898 398.733 297.75H430C430.69 297.75 431.25 298.31 431.25 299C431.25 299.414 431.586 299.75 432 299.75H464.396L463.232 298.586C463.135 298.488 463.135 298.33 463.232 298.232C463.33 298.135 463.488 298.135 463.586 298.232L465.177 299.823C465.274 299.921 465.274 300.079 465.177 300.177L463.586 301.768C463.488 301.865 463.33 301.865 463.232 301.768C463.135 301.67 463.135 301.512 463.232 301.414L464.396 300.25H432C431.31 300.25 430.75 299.69 430.75 299C430.75 298.586 430.414 298.25 430 298.25H398.733C398.612 299.102 397.886 299.75 397 299.75C396.029 299.75 395.25 298.971 395.25 298Z" fill="white"/>
</svg>
