<svg width="545" height="345" viewBox="0 0 545 345" fill="none" xmlns="http://www.w3.org/2000/svg">
<rect width="545" height="345" rx="12" fill="#3E3E3E"/>
<path d="M39.44 37V28.104H36.416V26.536H44.32V28.104H41.296V37H39.44ZM48.1218 37.192C47.3964 37.192 46.7404 37.032 46.1538 36.712C45.5671 36.3813 45.1031 35.912 44.7618 35.304C44.4204 34.6853 44.2498 33.944 44.2498 33.08C44.2498 32.2267 44.4204 31.4907 44.7618 30.872C45.1138 30.2533 45.5671 29.7787 46.1218 29.448C46.6764 29.1173 47.2578 28.952 47.8658 28.952C48.5804 28.952 49.1778 29.112 49.6578 29.432C50.1378 29.7413 50.5004 30.1787 50.7458 30.744C50.9911 31.2987 51.1138 31.944 51.1138 32.68C51.1138 33.064 51.0871 33.3627 51.0338 33.576H46.0418C46.1271 34.2693 46.3778 34.808 46.7938 35.192C47.2098 35.576 47.7324 35.768 48.3618 35.768C48.7031 35.768 49.0178 35.72 49.3058 35.624C49.6044 35.5173 49.8978 35.3733 50.1858 35.192L50.8098 36.344C50.4364 36.5893 50.0204 36.792 49.5618 36.952C49.1031 37.112 48.6231 37.192 48.1218 37.192ZM46.0258 32.328H49.5138C49.5138 31.72 49.3804 31.2453 49.1138 30.904C48.8471 30.552 48.4471 30.376 47.9138 30.376C47.4551 30.376 47.0444 30.5467 46.6818 30.888C46.3298 31.2187 46.1111 31.6987 46.0258 32.328ZM55.0631 37.192C54.5298 37.192 53.9965 37.0907 53.4631 36.888C52.9298 36.6747 52.4711 36.4133 52.0871 36.104L52.9511 34.92C53.3031 35.1867 53.6551 35.4 54.0071 35.56C54.3591 35.72 54.7325 35.8 55.1271 35.8C55.5538 35.8 55.8685 35.7093 56.0711 35.528C56.2738 35.3467 56.3751 35.1227 56.3751 34.856C56.3751 34.632 56.2898 34.4507 56.1191 34.312C55.9591 34.1627 55.7511 34.0347 55.4951 33.928C55.2391 33.8107 54.9725 33.6987 54.6951 33.592C54.3538 33.464 54.0125 33.3093 53.6711 33.128C53.3405 32.936 53.0685 32.696 52.8551 32.408C52.6418 32.1093 52.5351 31.7413 52.5351 31.304C52.5351 30.6107 52.7911 30.0453 53.3031 29.608C53.8151 29.1707 54.5085 28.952 55.3831 28.952C55.9378 28.952 56.4338 29.048 56.8711 29.24C57.3085 29.432 57.6871 29.6507 58.0071 29.896L57.1591 31.016C56.8818 30.8133 56.5991 30.6533 56.3111 30.536C56.0338 30.408 55.7405 30.344 55.4311 30.344C55.0365 30.344 54.7431 30.4293 54.5511 30.6C54.3591 30.76 54.2631 30.9627 54.2631 31.208C54.2631 31.5173 54.4231 31.752 54.7431 31.912C55.0631 32.072 55.4365 32.2267 55.8631 32.376C56.2258 32.504 56.5778 32.664 56.9191 32.856C57.2605 33.0373 57.5431 33.2773 57.7671 33.576C58.0018 33.8747 58.1191 34.2693 58.1191 34.76C58.1191 35.432 57.8578 36.008 57.3351 36.488C56.8125 36.9573 56.0551 37.192 55.0631 37.192ZM62.2173 37.192C61.3106 37.192 60.6653 36.9307 60.2812 36.408C59.9079 35.8747 59.7213 35.1867 59.7213 34.344V30.6H58.6013V29.224L59.8173 29.144L60.0413 27H61.5773V29.144H63.5773V30.6H61.5773V34.344C61.5773 35.2613 61.9453 35.72 62.6813 35.72C62.8199 35.72 62.9639 35.704 63.1133 35.672C63.2626 35.6293 63.3906 35.5867 63.4973 35.544L63.8173 36.904C63.6039 36.9787 63.3586 37.0427 63.0813 37.096C62.8146 37.16 62.5266 37.192 62.2173 37.192ZM71.6496 37.192C70.9456 37.192 70.263 37.0587 69.6016 36.792C68.951 36.5253 68.375 36.1467 67.8736 35.656L68.9616 34.392C69.335 34.744 69.7616 35.032 70.2416 35.256C70.7216 35.4693 71.2016 35.576 71.6816 35.576C72.279 35.576 72.7323 35.4533 73.0416 35.208C73.351 34.9627 73.5056 34.6373 73.5056 34.232C73.5056 33.7947 73.351 33.48 73.0416 33.288C72.743 33.096 72.359 32.8987 71.8896 32.696L70.4496 32.072C70.1083 31.9227 69.7723 31.7307 69.4416 31.496C69.1216 31.2613 68.855 30.9627 68.6416 30.6C68.439 30.2373 68.3376 29.8 68.3376 29.288C68.3376 28.7333 68.487 28.2373 68.7856 27.8C69.095 27.352 69.511 27 70.0336 26.744C70.567 26.4773 71.175 26.344 71.8576 26.344C72.4656 26.344 73.0523 26.4667 73.6176 26.712C74.183 26.9467 74.6683 27.2667 75.0736 27.672L74.1296 28.856C73.799 28.5787 73.447 28.36 73.0736 28.2C72.711 28.04 72.3056 27.96 71.8576 27.96C71.367 27.96 70.967 28.072 70.6576 28.296C70.359 28.5093 70.2096 28.808 70.2096 29.192C70.2096 29.4587 70.2843 29.6827 70.4336 29.864C70.5936 30.0347 70.8016 30.184 71.0576 30.312C71.3136 30.4293 71.5856 30.5467 71.8736 30.664L73.2976 31.256C73.9163 31.5227 74.423 31.8747 74.8176 32.312C75.2123 32.7387 75.4096 33.3307 75.4096 34.088C75.4096 34.6533 75.2603 35.1707 74.9616 35.64C74.663 36.1093 74.231 36.488 73.6656 36.776C73.111 37.0533 72.439 37.192 71.6496 37.192ZM80.4324 37.192C79.7177 37.192 79.0724 37.032 78.4964 36.712C77.931 36.3813 77.4777 35.912 77.1364 35.304C76.8057 34.6853 76.6404 33.944 76.6404 33.08C76.6404 32.2053 76.8217 31.464 77.1844 30.856C77.547 30.2373 78.027 29.768 78.6244 29.448C79.2324 29.1173 79.883 28.952 80.5764 28.952C81.0777 28.952 81.515 29.0373 81.8884 29.208C82.2617 29.3787 82.5924 29.5867 82.8804 29.832L81.9844 31.032C81.7817 30.8507 81.5737 30.712 81.3604 30.616C81.147 30.5093 80.9177 30.456 80.6724 30.456C80.043 30.456 79.5257 30.696 79.1204 31.176C78.7257 31.656 78.5284 32.2907 78.5284 33.08C78.5284 33.8587 78.7204 34.488 79.1044 34.968C79.499 35.448 80.0057 35.688 80.6244 35.688C80.9337 35.688 81.2217 35.624 81.4884 35.496C81.7657 35.3573 82.0164 35.1973 82.2404 35.016L82.9924 36.232C82.6297 36.552 82.2244 36.792 81.7764 36.952C81.3284 37.112 80.8804 37.192 80.4324 37.192ZM84.543 37V29.144H86.063L86.191 30.536H86.255C86.5323 30.024 86.8683 29.6347 87.263 29.368C87.6577 29.0907 88.063 28.952 88.479 28.952C88.8523 28.952 89.151 29.0053 89.375 29.112L89.055 30.712C88.9163 30.6693 88.7883 30.6373 88.671 30.616C88.5537 30.5947 88.4097 30.584 88.239 30.584C87.9297 30.584 87.6043 30.7067 87.263 30.952C86.9217 31.1867 86.6283 31.6027 86.383 32.2V37H84.543ZM90.5118 37V29.144H92.3518V37H90.5118ZM91.4398 27.768C91.1091 27.768 90.8424 27.672 90.6398 27.48C90.4371 27.288 90.3358 27.032 90.3358 26.712C90.3358 26.4027 90.4371 26.152 90.6398 25.96C90.8424 25.768 91.1091 25.672 91.4398 25.672C91.7704 25.672 92.0371 25.768 92.2398 25.96C92.4424 26.152 92.5438 26.4027 92.5438 26.712C92.5438 27.032 92.4424 27.288 92.2398 27.48C92.0371 27.672 91.7704 27.768 91.4398 27.768ZM94.6993 40.104V29.144H96.2193L96.3473 29.976H96.4113C96.7419 29.6987 97.1099 29.4587 97.5153 29.256C97.9313 29.0533 98.3526 28.952 98.7793 28.952C99.7606 28.952 100.518 29.3147 101.051 30.04C101.595 30.7653 101.867 31.736 101.867 32.952C101.867 33.848 101.707 34.616 101.387 35.256C101.067 35.8853 100.651 36.3653 100.139 36.696C99.6379 37.0267 99.0939 37.192 98.5073 37.192C98.1659 37.192 97.8246 37.1173 97.4833 36.968C97.1419 36.808 96.8113 36.5947 96.4913 36.328L96.5393 37.64V40.104H94.6993ZM98.1233 35.672C98.6459 35.672 99.0833 35.4427 99.4353 34.984C99.7873 34.5253 99.9633 33.8533 99.9633 32.968C99.9633 32.1787 99.8299 31.5653 99.5633 31.128C99.2966 30.6907 98.8646 30.472 98.2673 30.472C97.7126 30.472 97.1366 30.7653 96.5393 31.352V35.016C96.8273 35.2507 97.1046 35.4213 97.3713 35.528C97.6379 35.624 97.8886 35.672 98.1233 35.672ZM106.139 37.192C105.232 37.192 104.587 36.9307 104.203 36.408C103.83 35.8747 103.643 35.1867 103.643 34.344V30.6H102.523V29.224L103.739 29.144L103.963 27H105.499V29.144H107.499V30.6H105.499V34.344C105.499 35.2613 105.867 35.72 106.603 35.72C106.742 35.72 106.886 35.704 107.035 35.672C107.184 35.6293 107.312 35.5867 107.419 35.544L107.739 36.904C107.526 36.9787 107.28 37.0427 107.003 37.096C106.736 37.16 106.448 37.192 106.139 37.192ZM111.188 37.192C110.655 37.192 110.121 37.0907 109.588 36.888C109.055 36.6747 108.596 36.4133 108.212 36.104L109.076 34.92C109.428 35.1867 109.78 35.4 110.132 35.56C110.484 35.72 110.857 35.8 111.252 35.8C111.679 35.8 111.993 35.7093 112.196 35.528C112.399 35.3467 112.5 35.1227 112.5 34.856C112.5 34.632 112.415 34.4507 112.244 34.312C112.084 34.1627 111.876 34.0347 111.62 33.928C111.364 33.8107 111.097 33.6987 110.82 33.592C110.479 33.464 110.137 33.3093 109.796 33.128C109.465 32.936 109.193 32.696 108.98 32.408C108.767 32.1093 108.66 31.7413 108.66 31.304C108.66 30.6107 108.916 30.0453 109.428 29.608C109.94 29.1707 110.633 28.952 111.508 28.952C112.063 28.952 112.559 29.048 112.996 29.24C113.433 29.432 113.812 29.6507 114.132 29.896L113.284 31.016C113.007 30.8133 112.724 30.6533 112.436 30.536C112.159 30.408 111.865 30.344 111.556 30.344C111.161 30.344 110.868 30.4293 110.676 30.6C110.484 30.76 110.388 30.9627 110.388 31.208C110.388 31.5173 110.548 31.752 110.868 31.912C111.188 32.072 111.561 32.2267 111.988 32.376C112.351 32.504 112.703 32.664 113.044 32.856C113.385 33.0373 113.668 33.2773 113.892 33.576C114.127 33.8747 114.244 34.2693 114.244 34.76C114.244 35.432 113.983 36.008 113.46 36.488C112.937 36.9573 112.18 37.192 111.188 37.192Z" fill="white"/>
<rect x="31.5" y="56.5" width="184" height="51" rx="7.5" stroke="#5D5D5D"/>
<rect opacity="0.5" x="41" y="81" width="162" height="4" rx="2" fill="url(#paint0_linear_22_14150)"/>
<rect opacity="0.5" x="41" y="88" width="162" height="4" rx="2" fill="url(#paint1_linear_22_14150)"/>
<rect opacity="0.5" x="41" y="95" width="135" height="4" rx="2" fill="url(#paint2_linear_22_14150)"/>
<path d="M44.608 73.132C44.058 73.132 43.5777 73.022 43.167 72.802C42.7563 72.582 42.4373 72.23 42.21 71.746C41.99 71.262 41.88 70.6277 41.88 69.843V65.806H43.156V69.942C43.156 70.4627 43.2147 70.877 43.332 71.185C43.4567 71.4857 43.629 71.702 43.849 71.834C44.069 71.9587 44.322 72.021 44.608 72.021C44.9013 72.021 45.158 71.9587 45.378 71.834C45.6053 71.702 45.7813 71.4857 45.906 71.185C46.038 70.877 46.104 70.4627 46.104 69.942V65.806H47.325V69.843C47.325 70.6277 47.215 71.262 46.995 71.746C46.775 72.23 46.4597 72.582 46.049 72.802C45.6457 73.022 45.1653 73.132 44.608 73.132ZM50.4536 73.132C50.0869 73.132 49.7202 73.0623 49.3536 72.923C48.9869 72.7763 48.6716 72.5967 48.4076 72.384L49.0016 71.57C49.2436 71.7533 49.4856 71.9 49.7276 72.01C49.9696 72.12 50.2262 72.175 50.4976 72.175C50.7909 72.175 51.0072 72.1127 51.1466 71.988C51.2859 71.8633 51.3556 71.7093 51.3556 71.526C51.3556 71.372 51.2969 71.2473 51.1796 71.152C51.0696 71.0493 50.9266 70.9613 50.7506 70.888C50.5746 70.8073 50.3912 70.7303 50.2006 70.657C49.9659 70.569 49.7312 70.4627 49.4966 70.338C49.2692 70.206 49.0822 70.041 48.9356 69.843C48.7889 69.6377 48.7156 69.3847 48.7156 69.084C48.7156 68.6073 48.8916 68.2187 49.2436 67.918C49.5956 67.6173 50.0722 67.467 50.6736 67.467C51.0549 67.467 51.3959 67.533 51.6966 67.665C51.9972 67.797 52.2576 67.9473 52.4776 68.116L51.8946 68.886C51.7039 68.7467 51.5096 68.6367 51.3116 68.556C51.1209 68.468 50.9192 68.424 50.7066 68.424C50.4352 68.424 50.2336 68.4827 50.1016 68.6C49.9696 68.71 49.9036 68.8493 49.9036 69.018C49.9036 69.2307 50.0136 69.392 50.2336 69.502C50.4536 69.612 50.7102 69.7183 51.0036 69.821C51.2529 69.909 51.4949 70.019 51.7296 70.151C51.9642 70.2757 52.1586 70.4407 52.3126 70.646C52.4739 70.8513 52.5546 71.1227 52.5546 71.46C52.5546 71.922 52.3749 72.318 52.0156 72.648C51.6562 72.9707 51.1356 73.132 50.4536 73.132ZM55.9939 73.132C55.4952 73.132 55.0442 73.022 54.6409 72.802C54.2375 72.5747 53.9185 72.252 53.6839 71.834C53.4492 71.4087 53.3319 70.899 53.3319 70.305C53.3319 69.7183 53.4492 69.2123 53.6839 68.787C53.9259 68.3617 54.2375 68.0353 54.6189 67.808C55.0002 67.5807 55.3999 67.467 55.8179 67.467C56.3092 67.467 56.7199 67.577 57.0499 67.797C57.3799 68.0097 57.6292 68.3103 57.7979 68.699C57.9665 69.0803 58.0509 69.524 58.0509 70.03C58.0509 70.294 58.0325 70.4993 57.9959 70.646H54.5639C54.6225 71.1227 54.7949 71.493 55.0809 71.757C55.3669 72.021 55.7262 72.153 56.1589 72.153C56.3935 72.153 56.6099 72.12 56.8079 72.054C57.0132 71.9807 57.2149 71.8817 57.4129 71.757L57.8419 72.549C57.5852 72.7177 57.2992 72.857 56.9839 72.967C56.6685 73.077 56.3385 73.132 55.9939 73.132ZM54.5529 69.788H56.9509C56.9509 69.37 56.8592 69.0437 56.6759 68.809C56.4925 68.567 56.2175 68.446 55.8509 68.446C55.5355 68.446 55.2532 68.5633 55.0039 68.798C54.7619 69.0253 54.6115 69.3553 54.5529 69.788ZM59.2591 73V67.599H60.3041L60.3921 68.556H60.4361C60.6267 68.204 60.8577 67.9363 61.1291 67.753C61.4004 67.5623 61.6791 67.467 61.9651 67.467C62.2217 67.467 62.4271 67.5037 62.5811 67.577L62.3611 68.677C62.2657 68.6477 62.1777 68.6257 62.0971 68.611C62.0164 68.5963 61.9174 68.589 61.8001 68.589C61.5874 68.589 61.3637 68.6733 61.1291 68.842C60.8944 69.0033 60.6927 69.2893 60.5241 69.7V73H59.2591ZM67.7757 73.132C67.2917 73.132 66.8224 73.0403 66.3677 72.857C65.9204 72.6737 65.5244 72.4133 65.1797 72.076L65.9277 71.207C66.1844 71.449 66.4777 71.647 66.8077 71.801C67.1377 71.9477 67.4677 72.021 67.7977 72.021C68.2084 72.021 68.5201 71.9367 68.7327 71.768C68.9454 71.5993 69.0517 71.3757 69.0517 71.097C69.0517 70.7963 68.9454 70.58 68.7327 70.448C68.5274 70.316 68.2634 70.1803 67.9407 70.041L66.9507 69.612C66.7161 69.5093 66.4851 69.3773 66.2577 69.216C66.0377 69.0547 65.8544 68.8493 65.7077 68.6C65.5684 68.3507 65.4987 68.05 65.4987 67.698C65.4987 67.3167 65.6014 66.9757 65.8067 66.675C66.0194 66.367 66.3054 66.125 66.6647 65.949C67.0314 65.7657 67.4494 65.674 67.9187 65.674C68.3367 65.674 68.7401 65.7583 69.1287 65.927C69.5174 66.0883 69.8511 66.3083 70.1297 66.587L69.4807 67.401C69.2534 67.2103 69.0114 67.06 68.7547 66.95C68.5054 66.84 68.2267 66.785 67.9187 66.785C67.5814 66.785 67.3064 66.862 67.0937 67.016C66.8884 67.1627 66.7857 67.368 66.7857 67.632C66.7857 67.8153 66.8371 67.9693 66.9397 68.094C67.0497 68.2113 67.1927 68.314 67.3687 68.402C67.5447 68.4827 67.7317 68.5633 67.9297 68.644L68.9087 69.051C69.3341 69.2343 69.6824 69.4763 69.9537 69.777C70.2251 70.0703 70.3607 70.4773 70.3607 70.998C70.3607 71.3867 70.2581 71.7423 70.0527 72.065C69.8474 72.3877 69.5504 72.648 69.1617 72.846C68.7804 73.0367 68.3184 73.132 67.7757 73.132ZM73.1718 73.132C72.5485 73.132 72.1048 72.9523 71.8408 72.593C71.5842 72.2263 71.4558 71.7533 71.4558 71.174V68.6H70.6858V67.654L71.5218 67.599L71.6758 66.125H72.7318V67.599H74.1068V68.6H72.7318V71.174C72.7318 71.8047 72.9848 72.12 73.4908 72.12C73.5862 72.12 73.6852 72.109 73.7878 72.087C73.8905 72.0577 73.9785 72.0283 74.0518 71.999L74.2718 72.934C74.1252 72.9853 73.9565 73.0293 73.7658 73.066C73.5825 73.11 73.3845 73.132 73.1718 73.132ZM77.2826 73.132C76.8352 73.132 76.4172 73.022 76.0286 72.802C75.6399 72.5747 75.3246 72.252 75.0826 71.834C74.8406 71.4087 74.7196 70.899 74.7196 70.305C74.7196 69.7037 74.8406 69.194 75.0826 68.776C75.3246 68.3507 75.6399 68.028 76.0286 67.808C76.4172 67.5807 76.8352 67.467 77.2826 67.467C77.7372 67.467 78.1589 67.5807 78.5476 67.808C78.9362 68.028 79.2516 68.3507 79.4936 68.776C79.7356 69.194 79.8566 69.7037 79.8566 70.305C79.8566 70.899 79.7356 71.4087 79.4936 71.834C79.2516 72.252 78.9362 72.5747 78.5476 72.802C78.1589 73.022 77.7372 73.132 77.2826 73.132ZM77.2826 72.098C77.6786 72.098 77.9902 71.933 78.2176 71.603C78.4449 71.273 78.5586 70.8403 78.5586 70.305C78.5586 69.7623 78.4449 69.326 78.2176 68.996C77.9902 68.666 77.6786 68.501 77.2826 68.501C76.8866 68.501 76.5749 68.666 76.3476 68.996C76.1276 69.326 76.0176 69.7623 76.0176 70.305C76.0176 70.8403 76.1276 71.273 76.3476 71.603C76.5749 71.933 76.8866 72.098 77.2826 72.098ZM81.1087 73V67.599H82.1537L82.2417 68.556H82.2857C82.4763 68.204 82.7073 67.9363 82.9787 67.753C83.25 67.5623 83.5287 67.467 83.8147 67.467C84.0713 67.467 84.2767 67.5037 84.4307 67.577L84.2107 68.677C84.1153 68.6477 84.0273 68.6257 83.9467 68.611C83.866 68.5963 83.767 68.589 83.6497 68.589C83.437 68.589 83.2133 68.6733 82.9787 68.842C82.744 69.0033 82.5423 69.2893 82.3737 69.7V73H81.1087ZM85.7471 75.222C85.6004 75.222 85.4721 75.211 85.3621 75.189C85.2521 75.167 85.1457 75.1413 85.0431 75.112L85.2741 74.122C85.3254 74.1367 85.3841 74.1513 85.4501 74.166C85.5234 74.188 85.5931 74.199 85.6591 74.199C85.9451 74.199 86.1724 74.111 86.3411 73.935C86.5171 73.7663 86.6491 73.5463 86.7371 73.275L86.8361 72.934L84.7131 67.599H86.0001L86.9351 70.25C87.0157 70.4847 87.0927 70.734 87.1661 70.998C87.2467 71.2547 87.3274 71.5113 87.4081 71.768H87.4521C87.5181 71.5187 87.5841 71.2657 87.6501 71.009C87.7234 70.745 87.7931 70.492 87.8591 70.25L88.6731 67.599H89.8941L87.9361 73.242C87.7087 73.8507 87.4337 74.331 87.1111 74.683C86.7884 75.0423 86.3337 75.222 85.7471 75.222Z" fill="white"/>
<rect x="31.5" y="144.5" width="184" height="145" rx="7.5" stroke="#5D5D5D"/>
<path d="M44.5 170C44.5 168.067 46.067 166.5 48 166.5H199C200.933 166.5 202.5 168.067 202.5 170V185.5H44.5V170Z" fill="#5D5D5D" stroke="#5D5D5D"/>
<rect x="44.5" y="185.5" width="158" height="19" stroke="#5D5D5D"/>
<rect x="44.5" y="204.5" width="158" height="19" fill="#5D5D5D" stroke="#5D5D5D"/>
<rect x="44.5" y="223.5" width="158" height="19" stroke="#5D5D5D"/>
<rect x="44.5" y="242.5" width="158" height="19" fill="#5D5D5D" stroke="#5D5D5D"/>
<path d="M44.5 261.5H202.5V277C202.5 278.933 200.933 280.5 199 280.5H48C46.067 280.5 44.5 278.933 44.5 277V261.5Z" stroke="#5D5D5D"/>
<rect opacity="0.5" x="51" y="174" width="32" height="4" rx="2" fill="#D9D9D9"/>
<rect opacity="0.5" x="91" y="174" width="82" height="4" rx="2" fill="#D9D9D9"/>
<rect opacity="0.5" x="51" y="193" width="32" height="4" rx="2" fill="#D9D9D9"/>
<rect opacity="0.5" x="91" y="193" width="82" height="4" rx="2" fill="#D9D9D9"/>
<rect opacity="0.5" x="51" y="212" width="32" height="4" rx="2" fill="#D9D9D9"/>
<rect opacity="0.5" x="91" y="212" width="82" height="4" rx="2" fill="#D9D9D9"/>
<rect opacity="0.5" x="51" y="231" width="32" height="4" rx="2" fill="#D9D9D9"/>
<rect opacity="0.5" x="91" y="231" width="82" height="4" rx="2" fill="#D9D9D9"/>
<rect opacity="0.5" x="51" y="250" width="32" height="4" rx="2" fill="#D9D9D9"/>
<rect opacity="0.5" x="91" y="250" width="82" height="4" rx="2" fill="#D9D9D9"/>
<rect opacity="0.5" x="51" y="269" width="32" height="4" rx="2" fill="#D9D9D9"/>
<rect opacity="0.5" x="91" y="269" width="82" height="4" rx="2" fill="#D9D9D9"/>
<rect x="183.5" y="169.5" width="13" height="13" rx="1.5" stroke="#A2A2A2"/>
<rect x="183.5" y="188.5" width="13" height="13" rx="1.5" stroke="#A2A2A2"/>
<rect x="183.5" y="207.5" width="13" height="13" rx="1.5" stroke="#A2A2A2"/>
<rect x="183.5" y="226.5" width="13" height="13" rx="1.5" stroke="#A2A2A2"/>
<rect x="183.5" y="245.5" width="13" height="13" rx="1.5" stroke="#A2A2A2"/>
<rect x="183.5" y="264.5" width="13" height="13" rx="1.5" stroke="#A2A2A2"/>
<rect opacity="0.5" x="44" y="154" width="60" height="4" rx="2" fill="url(#paint3_linear_22_14150)"/>
<rect x="31.5" y="299.5" width="184" height="19" rx="7.5" fill="#5D5D5D"/>
<rect x="31.5" y="299.5" width="184" height="19" rx="7.5" stroke="#5D5D5D"/>
<rect x="232.5" y="56.5" width="283" height="263" rx="7.5" stroke="#5D5D5D"/>
<rect x="242" y="68" width="98" height="21" rx="4" fill="#5C5BF7"/>
<path d="M257.723 82.12C257.283 82.12 256.857 82.0367 256.443 81.87C256.037 81.7033 255.677 81.4667 255.363 81.16L256.043 80.37C256.277 80.59 256.543 80.77 256.843 80.91C257.143 81.0433 257.443 81.11 257.743 81.11C258.117 81.11 258.4 81.0333 258.593 80.88C258.787 80.7267 258.883 80.5233 258.883 80.27C258.883 79.9967 258.787 79.8 258.593 79.68C258.407 79.56 258.167 79.4367 257.873 79.31L256.973 78.92C256.76 78.8267 256.55 78.7067 256.343 78.56C256.143 78.4133 255.977 78.2267 255.843 78C255.717 77.7733 255.653 77.5 255.653 77.18C255.653 76.8333 255.747 76.5233 255.933 76.25C256.127 75.97 256.387 75.75 256.713 75.59C257.047 75.4233 257.427 75.34 257.853 75.34C258.233 75.34 258.6 75.4167 258.953 75.57C259.307 75.7167 259.61 75.9167 259.863 76.17L259.273 76.91C259.067 76.7367 258.847 76.6 258.613 76.5C258.387 76.4 258.133 76.35 257.853 76.35C257.547 76.35 257.297 76.42 257.103 76.56C256.917 76.6933 256.823 76.88 256.823 77.12C256.823 77.2867 256.87 77.4267 256.963 77.54C257.063 77.6467 257.193 77.74 257.353 77.82C257.513 77.8933 257.683 77.9667 257.863 78.04L258.753 78.41C259.14 78.5767 259.457 78.7967 259.703 79.07C259.95 79.3367 260.073 79.7067 260.073 80.18C260.073 80.5333 259.98 80.8567 259.793 81.15C259.607 81.4433 259.337 81.68 258.983 81.86C258.637 82.0333 258.217 82.12 257.723 82.12ZM262.629 82.12C262.062 82.12 261.659 81.9567 261.419 81.63C261.186 81.2967 261.069 80.8667 261.069 80.34V78H260.369V77.14L261.129 77.09L261.269 75.75H262.229V77.09H263.479V78H262.229V80.34C262.229 80.9133 262.459 81.2 262.919 81.2C263.006 81.2 263.096 81.19 263.189 81.17C263.282 81.1433 263.362 81.1167 263.429 81.09L263.629 81.94C263.496 81.9867 263.342 82.0267 263.169 82.06C263.002 82.1 262.822 82.12 262.629 82.12ZM265.487 82.12C265.061 82.12 264.711 81.9867 264.437 81.72C264.171 81.4533 264.037 81.1067 264.037 80.68C264.037 80.1533 264.267 79.7467 264.727 79.46C265.187 79.1667 265.921 78.9667 266.927 78.86C266.921 78.6 266.851 78.3767 266.717 78.19C266.591 77.9967 266.361 77.9 266.027 77.9C265.787 77.9 265.551 77.9467 265.317 78.04C265.091 78.1333 264.867 78.2467 264.647 78.38L264.227 77.61C264.501 77.4367 264.807 77.2867 265.147 77.16C265.494 77.0333 265.861 76.97 266.247 76.97C266.861 76.97 267.317 77.1533 267.617 77.52C267.924 77.88 268.077 78.4033 268.077 79.09V82H267.127L267.047 81.46H267.007C266.787 81.6467 266.551 81.8033 266.297 81.93C266.051 82.0567 265.781 82.12 265.487 82.12ZM265.857 81.22C266.057 81.22 266.237 81.1733 266.397 81.08C266.564 80.98 266.741 80.8467 266.927 80.68V79.58C266.261 79.6667 265.797 79.7967 265.537 79.97C265.277 80.1367 265.147 80.3433 265.147 80.59C265.147 80.81 265.214 80.97 265.347 81.07C265.481 81.17 265.651 81.22 265.857 81.22ZM269.454 82V77.09H270.404L270.484 77.96H270.524C270.697 77.64 270.907 77.3967 271.154 77.23C271.4 77.0567 271.654 76.97 271.914 76.97C272.147 76.97 272.334 77.0033 272.474 77.07L272.274 78.07C272.187 78.0433 272.107 78.0233 272.034 78.01C271.96 77.9967 271.87 77.99 271.764 77.99C271.57 77.99 271.367 78.0667 271.154 78.22C270.94 78.3667 270.757 78.6267 270.604 79V82H269.454ZM274.914 82.12C274.347 82.12 273.944 81.9567 273.704 81.63C273.471 81.2967 273.354 80.8667 273.354 80.34V78H272.654V77.14L273.414 77.09L273.554 75.75H274.514V77.09H275.764V78H274.514V80.34C274.514 80.9133 274.744 81.2 275.204 81.2C275.291 81.2 275.381 81.19 275.474 81.17C275.567 81.1433 275.647 81.1167 275.714 81.09L275.914 81.94C275.781 81.9867 275.627 82.0267 275.454 82.06C275.287 82.1 275.107 82.12 274.914 82.12ZM280.219 82V76.44H278.329V75.46H283.269V76.44H281.379V82H280.219ZM285.645 82.12C285.192 82.12 284.782 82.02 284.415 81.82C284.049 81.6133 283.759 81.32 283.545 80.94C283.332 80.5533 283.225 80.09 283.225 79.55C283.225 79.0167 283.332 78.5567 283.545 78.17C283.765 77.7833 284.049 77.4867 284.395 77.28C284.742 77.0733 285.105 76.97 285.485 76.97C285.932 76.97 286.305 77.07 286.605 77.27C286.905 77.4633 287.132 77.7367 287.285 78.09C287.439 78.4367 287.515 78.84 287.515 79.3C287.515 79.54 287.499 79.7267 287.465 79.86H284.345C284.399 80.2933 284.555 80.63 284.815 80.87C285.075 81.11 285.402 81.23 285.795 81.23C286.009 81.23 286.205 81.2 286.385 81.14C286.572 81.0733 286.755 80.9833 286.935 80.87L287.325 81.59C287.092 81.7433 286.832 81.87 286.545 81.97C286.259 82.07 285.959 82.12 285.645 82.12ZM284.335 79.08H286.515C286.515 78.7 286.432 78.4033 286.265 78.19C286.099 77.97 285.849 77.86 285.515 77.86C285.229 77.86 284.972 77.9667 284.745 78.18C284.525 78.3867 284.389 78.6867 284.335 79.08ZM289.984 82.12C289.65 82.12 289.317 82.0567 288.984 81.93C288.65 81.7967 288.364 81.6333 288.124 81.44L288.664 80.7C288.884 80.8667 289.104 81 289.324 81.1C289.544 81.2 289.777 81.25 290.024 81.25C290.29 81.25 290.487 81.1933 290.614 81.08C290.74 80.9667 290.804 80.8267 290.804 80.66C290.804 80.52 290.75 80.4067 290.644 80.32C290.544 80.2267 290.414 80.1467 290.254 80.08C290.094 80.0067 289.927 79.9367 289.754 79.87C289.54 79.79 289.327 79.6933 289.114 79.58C288.907 79.46 288.737 79.31 288.604 79.13C288.47 78.9433 288.404 78.7133 288.404 78.44C288.404 78.0067 288.564 77.6533 288.884 77.38C289.204 77.1067 289.637 76.97 290.184 76.97C290.53 76.97 290.84 77.03 291.114 77.15C291.387 77.27 291.624 77.4067 291.824 77.56L291.294 78.26C291.12 78.1333 290.944 78.0333 290.764 77.96C290.59 77.88 290.407 77.84 290.214 77.84C289.967 77.84 289.784 77.8933 289.664 78C289.544 78.1 289.484 78.2267 289.484 78.38C289.484 78.5733 289.584 78.72 289.784 78.82C289.984 78.92 290.217 79.0167 290.484 79.11C290.71 79.19 290.93 79.29 291.144 79.41C291.357 79.5233 291.534 79.6733 291.674 79.86C291.82 80.0467 291.894 80.2933 291.894 80.6C291.894 81.02 291.73 81.38 291.404 81.68C291.077 81.9733 290.604 82.12 289.984 82.12ZM294.455 82.12C293.888 82.12 293.485 81.9567 293.245 81.63C293.012 81.2967 292.895 80.8667 292.895 80.34V78H292.195V77.14L292.955 77.09L293.095 75.75H294.055V77.09H295.305V78H294.055V80.34C294.055 80.9133 294.285 81.2 294.745 81.2C294.832 81.2 294.922 81.19 295.015 81.17C295.108 81.1433 295.188 81.1167 295.255 81.09L295.455 81.94C295.322 81.9867 295.168 82.0267 294.995 82.06C294.828 82.1 294.648 82.12 294.455 82.12ZM296.338 82V77.09H297.488V82H296.338ZM296.918 76.23C296.712 76.23 296.545 76.17 296.418 76.05C296.292 75.93 296.228 75.77 296.228 75.57C296.228 75.3767 296.292 75.22 296.418 75.1C296.545 74.98 296.712 74.92 296.918 74.92C297.125 74.92 297.292 74.98 297.418 75.1C297.545 75.22 297.608 75.3767 297.608 75.57C297.608 75.77 297.545 75.93 297.418 76.05C297.292 76.17 297.125 76.23 296.918 76.23ZM298.956 82V77.09H299.906L299.986 77.75H300.026C300.246 77.5367 300.486 77.3533 300.746 77.2C301.006 77.0467 301.302 76.97 301.636 76.97C302.162 76.97 302.546 77.14 302.786 77.48C303.026 77.82 303.146 78.3 303.146 78.92V82H301.996V79.07C301.996 78.6633 301.936 78.3767 301.816 78.21C301.696 78.0433 301.499 77.96 301.226 77.96C301.012 77.96 300.822 78.0133 300.656 78.12C300.496 78.22 300.312 78.37 300.106 78.57V82H298.956ZM306.261 84.17C305.875 84.17 305.525 84.1233 305.211 84.03C304.905 83.9367 304.661 83.7933 304.481 83.6C304.308 83.4133 304.221 83.1767 304.221 82.89C304.221 82.4833 304.455 82.1333 304.921 81.84V81.8C304.795 81.72 304.688 81.6133 304.601 81.48C304.521 81.3467 304.481 81.18 304.481 80.98C304.481 80.7867 304.535 80.6133 304.641 80.46C304.755 80.3 304.881 80.17 305.021 80.07V80.03C304.855 79.9033 304.705 79.7267 304.571 79.5C304.445 79.2733 304.381 79.0167 304.381 78.73C304.381 78.35 304.471 78.03 304.651 77.77C304.831 77.51 305.068 77.3133 305.361 77.18C305.661 77.04 305.981 76.97 306.321 76.97C306.455 76.97 306.581 76.9833 306.701 77.01C306.828 77.03 306.941 77.0567 307.041 77.09H308.801V77.94H307.901C307.981 78.0333 308.048 78.1533 308.101 78.3C308.155 78.44 308.181 78.5967 308.181 78.77C308.181 79.13 308.098 79.4367 307.931 79.69C307.765 79.9367 307.541 80.1233 307.261 80.25C306.981 80.3767 306.668 80.44 306.321 80.44C306.215 80.44 306.105 80.43 305.991 80.41C305.878 80.39 305.765 80.3567 305.651 80.31C305.578 80.3767 305.518 80.4433 305.471 80.51C305.431 80.5767 305.411 80.6667 305.411 80.78C305.411 80.92 305.468 81.03 305.581 81.11C305.701 81.19 305.911 81.23 306.211 81.23H307.081C307.675 81.23 308.121 81.3267 308.421 81.52C308.728 81.7067 308.881 82.0133 308.881 82.44C308.881 82.76 308.775 83.05 308.561 83.31C308.348 83.5767 308.045 83.7867 307.651 83.94C307.258 84.0933 306.795 84.17 306.261 84.17ZM306.321 79.72C306.555 79.72 306.755 79.6333 306.921 79.46C307.088 79.2867 307.171 79.0433 307.171 78.73C307.171 78.4233 307.088 78.1867 306.921 78.02C306.761 77.8467 306.561 77.76 306.321 77.76C306.081 77.76 305.878 77.8433 305.711 78.01C305.545 78.1767 305.461 78.4167 305.461 78.73C305.461 79.0433 305.545 79.2867 305.711 79.46C305.878 79.6333 306.081 79.72 306.321 79.72ZM306.441 83.42C306.835 83.42 307.155 83.34 307.401 83.18C307.648 83.02 307.771 82.8367 307.771 82.63C307.771 82.4367 307.695 82.3067 307.541 82.24C307.395 82.1733 307.181 82.14 306.901 82.14H306.231C305.965 82.14 305.741 82.1167 305.561 82.07C305.308 82.2633 305.181 82.48 305.181 82.72C305.181 82.94 305.295 83.11 305.521 83.23C305.748 83.3567 306.055 83.42 306.441 83.42Z" fill="white"/>
<path fill-rule="evenodd" clip-rule="evenodd" d="M322.5 75.8431V81.1058L325.714 78.4984L322.5 75.8431ZM322.471 82.5004C322.266 82.5004 322.059 82.4564 321.867 82.3658C321.435 82.1624 321.167 81.7571 321.167 81.3084V75.6911C321.167 75.2431 321.435 74.8378 321.867 74.6344C322.355 74.4044 322.933 74.4711 323.339 74.8064L326.739 77.6158C327.011 77.8398 327.167 78.1624 327.167 78.4998C327.167 78.8371 327.011 79.1604 326.739 79.3844L323.339 82.1924C323.094 82.3958 322.785 82.5004 322.471 82.5004Z" fill="white"/>
<rect x="244" y="99" width="260" height="22" rx="4" fill="#616161"/>
<path d="M256.014 114.132C255.53 114.132 255.061 114.04 254.606 113.857C254.159 113.674 253.763 113.413 253.418 113.076L254.166 112.207C254.423 112.449 254.716 112.647 255.046 112.801C255.376 112.948 255.706 113.021 256.036 113.021C256.447 113.021 256.758 112.937 256.971 112.768C257.184 112.599 257.29 112.376 257.29 112.097C257.29 111.796 257.184 111.58 256.971 111.448C256.766 111.316 256.502 111.18 256.179 111.041L255.189 110.612C254.954 110.509 254.723 110.377 254.496 110.216C254.276 110.055 254.093 109.849 253.946 109.6C253.807 109.351 253.737 109.05 253.737 108.698C253.737 108.317 253.84 107.976 254.045 107.675C254.258 107.367 254.544 107.125 254.903 106.949C255.27 106.766 255.688 106.674 256.157 106.674C256.575 106.674 256.978 106.758 257.367 106.927C257.756 107.088 258.089 107.308 258.368 107.587L257.719 108.401C257.492 108.21 257.25 108.06 256.993 107.95C256.744 107.84 256.465 107.785 256.157 107.785C255.82 107.785 255.545 107.862 255.332 108.016C255.127 108.163 255.024 108.368 255.024 108.632C255.024 108.815 255.075 108.969 255.178 109.094C255.288 109.211 255.431 109.314 255.607 109.402C255.783 109.483 255.97 109.563 256.168 109.644L257.147 110.051C257.572 110.234 257.921 110.476 258.192 110.777C258.463 111.07 258.599 111.477 258.599 111.998C258.599 112.387 258.496 112.742 258.291 113.065C258.086 113.388 257.789 113.648 257.4 113.846C257.019 114.037 256.557 114.132 256.014 114.132ZM261.41 114.132C260.787 114.132 260.343 113.952 260.079 113.593C259.822 113.226 259.694 112.753 259.694 112.174V109.6H258.924V108.654L259.76 108.599L259.914 107.125H260.97V108.599H262.345V109.6H260.97V112.174C260.97 112.805 261.223 113.12 261.729 113.12C261.824 113.12 261.923 113.109 262.026 113.087C262.129 113.058 262.217 113.028 262.29 112.999L262.51 113.934C262.363 113.985 262.195 114.029 262.004 114.066C261.821 114.11 261.623 114.132 261.41 114.132ZM264.554 114.132C264.085 114.132 263.7 113.985 263.399 113.692C263.106 113.399 262.959 113.017 262.959 112.548C262.959 111.969 263.212 111.521 263.718 111.206C264.224 110.883 265.031 110.663 266.138 110.546C266.131 110.26 266.054 110.014 265.907 109.809C265.768 109.596 265.515 109.49 265.148 109.49C264.884 109.49 264.624 109.541 264.367 109.644C264.118 109.747 263.872 109.871 263.63 110.018L263.168 109.171C263.469 108.98 263.806 108.815 264.18 108.676C264.562 108.537 264.965 108.467 265.39 108.467C266.065 108.467 266.567 108.669 266.897 109.072C267.235 109.468 267.403 110.044 267.403 110.799V114H266.358L266.27 113.406H266.226C265.984 113.611 265.724 113.784 265.445 113.923C265.174 114.062 264.877 114.132 264.554 114.132ZM264.961 113.142C265.181 113.142 265.379 113.091 265.555 112.988C265.739 112.878 265.933 112.731 266.138 112.548V111.338C265.405 111.433 264.895 111.576 264.609 111.767C264.323 111.95 264.18 112.178 264.18 112.449C264.18 112.691 264.254 112.867 264.4 112.977C264.547 113.087 264.734 113.142 264.961 113.142ZM270.648 114.132C270.025 114.132 269.581 113.952 269.317 113.593C269.061 113.226 268.932 112.753 268.932 112.174V109.6H268.162V108.654L268.998 108.599L269.152 107.125H270.208V108.599H271.583V109.6H270.208V112.174C270.208 112.805 270.461 113.12 270.967 113.12C271.063 113.12 271.162 113.109 271.264 113.087C271.367 113.058 271.455 113.028 271.528 112.999L271.748 113.934C271.602 113.985 271.433 114.029 271.242 114.066C271.059 114.11 270.861 114.132 270.648 114.132ZM274.326 114.132C273.747 114.132 273.325 113.945 273.061 113.571C272.797 113.197 272.665 112.669 272.665 111.987V108.599H273.93V111.822C273.93 112.269 273.996 112.585 274.128 112.768C274.26 112.951 274.473 113.043 274.766 113.043C275.001 113.043 275.206 112.984 275.382 112.867C275.565 112.75 275.76 112.559 275.965 112.295V108.599H277.23V114H276.196L276.097 113.208H276.064C275.829 113.487 275.573 113.71 275.294 113.879C275.015 114.048 274.693 114.132 274.326 114.132ZM280.339 114.132C279.973 114.132 279.606 114.062 279.239 113.923C278.873 113.776 278.557 113.597 278.293 113.384L278.887 112.57C279.129 112.753 279.371 112.9 279.613 113.01C279.855 113.12 280.112 113.175 280.383 113.175C280.677 113.175 280.893 113.113 281.032 112.988C281.172 112.863 281.241 112.709 281.241 112.526C281.241 112.372 281.183 112.247 281.065 112.152C280.955 112.049 280.812 111.961 280.636 111.888C280.46 111.807 280.277 111.73 280.086 111.657C279.852 111.569 279.617 111.463 279.382 111.338C279.155 111.206 278.968 111.041 278.821 110.843C278.675 110.638 278.601 110.385 278.601 110.084C278.601 109.607 278.777 109.219 279.129 108.918C279.481 108.617 279.958 108.467 280.559 108.467C280.941 108.467 281.282 108.533 281.582 108.665C281.883 108.797 282.143 108.947 282.363 109.116L281.78 109.886C281.59 109.747 281.395 109.637 281.197 109.556C281.007 109.468 280.805 109.424 280.592 109.424C280.321 109.424 280.119 109.483 279.987 109.6C279.855 109.71 279.789 109.849 279.789 110.018C279.789 110.231 279.899 110.392 280.119 110.502C280.339 110.612 280.596 110.718 280.889 110.821C281.139 110.909 281.381 111.019 281.615 111.151C281.85 111.276 282.044 111.441 282.198 111.646C282.36 111.851 282.44 112.123 282.44 112.46C282.44 112.922 282.261 113.318 281.901 113.648C281.542 113.971 281.021 114.132 280.339 114.132ZM284.285 110.37C284.057 110.37 283.863 110.289 283.702 110.128C283.54 109.967 283.46 109.761 283.46 109.512C283.46 109.263 283.54 109.057 283.702 108.896C283.863 108.735 284.057 108.654 284.285 108.654C284.519 108.654 284.714 108.735 284.868 108.896C285.022 109.057 285.099 109.263 285.099 109.512C285.099 109.761 285.022 109.967 284.868 110.128C284.714 110.289 284.519 110.37 284.285 110.37ZM284.285 114.132C284.057 114.132 283.863 114.051 283.702 113.89C283.54 113.729 283.46 113.523 283.46 113.274C283.46 113.025 283.54 112.819 283.702 112.658C283.863 112.497 284.057 112.416 284.285 112.416C284.519 112.416 284.714 112.497 284.868 112.658C285.022 112.819 285.099 113.025 285.099 113.274C285.099 113.523 285.022 113.729 284.868 113.89C284.714 114.051 284.519 114.132 284.285 114.132Z" fill="white"/>
<path d="M288.911 114V106.806H291.177C291.712 106.806 292.189 106.876 292.607 107.015C293.025 107.154 293.355 107.385 293.597 107.708C293.839 108.031 293.96 108.471 293.96 109.028C293.96 109.556 293.839 109.992 293.597 110.337C293.355 110.682 293.029 110.938 292.618 111.107C292.207 111.276 291.742 111.36 291.221 111.36H290.187V114H288.911ZM290.187 110.337H291.122C292.178 110.337 292.706 109.901 292.706 109.028C292.706 108.573 292.567 108.262 292.288 108.093C292.017 107.917 291.613 107.829 291.078 107.829H290.187V110.337ZM296.24 110.172L295.987 111.052H297.824L297.571 110.172C297.453 109.791 297.34 109.398 297.23 108.995C297.127 108.592 297.024 108.192 296.922 107.796H296.878C296.782 108.199 296.68 108.603 296.57 109.006C296.467 109.402 296.357 109.791 296.24 110.172ZM293.831 114L296.174 106.806H297.67L300.013 114H298.671L298.11 112.053H295.69L295.129 114H293.831ZM303 114.132C302.516 114.132 302.047 114.04 301.592 113.857C301.145 113.674 300.749 113.413 300.404 113.076L301.152 112.207C301.409 112.449 301.702 112.647 302.032 112.801C302.362 112.948 302.692 113.021 303.022 113.021C303.433 113.021 303.745 112.937 303.957 112.768C304.17 112.599 304.276 112.376 304.276 112.097C304.276 111.796 304.17 111.58 303.957 111.448C303.752 111.316 303.488 111.18 303.165 111.041L302.175 110.612C301.941 110.509 301.71 110.377 301.482 110.216C301.262 110.055 301.079 109.849 300.932 109.6C300.793 109.351 300.723 109.05 300.723 108.698C300.723 108.317 300.826 107.976 301.031 107.675C301.244 107.367 301.53 107.125 301.889 106.949C302.256 106.766 302.674 106.674 303.143 106.674C303.561 106.674 303.965 106.758 304.353 106.927C304.742 107.088 305.076 107.308 305.354 107.587L304.705 108.401C304.478 108.21 304.236 108.06 303.979 107.95C303.73 107.84 303.451 107.785 303.143 107.785C302.806 107.785 302.531 107.862 302.318 108.016C302.113 108.163 302.01 108.368 302.01 108.632C302.01 108.815 302.062 108.969 302.164 109.094C302.274 109.211 302.417 109.314 302.593 109.402C302.769 109.483 302.956 109.563 303.154 109.644L304.133 110.051C304.559 110.234 304.907 110.476 305.178 110.777C305.45 111.07 305.585 111.477 305.585 111.998C305.585 112.387 305.483 112.742 305.277 113.065C305.072 113.388 304.775 113.648 304.386 113.846C304.005 114.037 303.543 114.132 303 114.132ZM308.823 114.132C308.339 114.132 307.869 114.04 307.415 113.857C306.967 113.674 306.571 113.413 306.227 113.076L306.975 112.207C307.231 112.449 307.525 112.647 307.855 112.801C308.185 112.948 308.515 113.021 308.845 113.021C309.255 113.021 309.567 112.937 309.78 112.768C309.992 112.599 310.099 112.376 310.099 112.097C310.099 111.796 309.992 111.58 309.78 111.448C309.574 111.316 309.31 111.18 308.988 111.041L307.998 110.612C307.763 110.509 307.532 110.377 307.305 110.216C307.085 110.055 306.901 109.849 306.755 109.6C306.615 109.351 306.546 109.05 306.546 108.698C306.546 108.317 306.648 107.976 306.854 107.675C307.066 107.367 307.352 107.125 307.712 106.949C308.078 106.766 308.496 106.674 308.966 106.674C309.384 106.674 309.787 106.758 310.176 106.927C310.564 107.088 310.898 107.308 311.177 107.587L310.528 108.401C310.3 108.21 310.058 108.06 309.802 107.95C309.552 107.84 309.274 107.785 308.966 107.785C308.628 107.785 308.353 107.862 308.141 108.016C307.935 108.163 307.833 108.368 307.833 108.632C307.833 108.815 307.884 108.969 307.987 109.094C308.097 109.211 308.24 109.314 308.416 109.402C308.592 109.483 308.779 109.563 308.977 109.644L309.956 110.051C310.381 110.234 310.729 110.476 311.001 110.777C311.272 111.07 311.408 111.477 311.408 111.998C311.408 112.387 311.305 112.742 311.1 113.065C310.894 113.388 310.597 113.648 310.209 113.846C309.827 114.037 309.365 114.132 308.823 114.132Z" fill="#2BFF40"/>
<rect opacity="0.5" x="244" y="138" width="162" height="4" rx="2" fill="url(#paint4_linear_22_14150)"/>
<rect opacity="0.5" x="244" y="156" width="199" height="4" rx="2" fill="url(#paint5_linear_22_14150)"/>
<rect opacity="0.5" x="244" y="174" width="162" height="4" rx="2" fill="url(#paint6_linear_22_14150)"/>
<rect opacity="0.5" x="244" y="192" width="185" height="4" rx="2" fill="url(#paint7_linear_22_14150)"/>
<rect opacity="0.5" x="244" y="210" width="218" height="4" rx="2" fill="url(#paint8_linear_22_14150)"/>
<rect opacity="0.5" x="244" y="228" width="191" height="4" rx="2" fill="url(#paint9_linear_22_14150)"/>
<rect opacity="0.5" x="244" y="246" width="162" height="4" rx="2" fill="url(#paint10_linear_22_14150)"/>
<circle cx="497" cy="140" r="3" fill="#2BFF40"/>
<circle cx="497" cy="157" r="3" fill="#2BFF40"/>
<circle cx="497" cy="174" r="3" fill="#2BFF40"/>
<circle cx="497" cy="192" r="3" fill="#2BFF40"/>
<circle cx="497" cy="212" r="3" fill="#2BFF40"/>
<circle cx="497" cy="230" r="3" fill="#2BFF40"/>
<circle cx="497" cy="248" r="3" fill="#2BFF40"/>
<rect x="31" y="115" width="98" height="21" rx="4" fill="#5C5BF7"/>
<path d="M40.9609 129V122.46H43.1709C43.6242 122.46 44.0309 122.52 44.3909 122.64C44.7575 122.76 45.0442 122.963 45.2509 123.25C45.4642 123.53 45.5709 123.913 45.5709 124.4C45.5709 124.9 45.4509 125.303 45.2109 125.61C44.9775 125.917 44.6642 126.137 44.2709 126.27L45.8309 129H44.5309L43.1209 126.44H42.1209V129H40.9609ZM42.1209 125.52H43.0509C43.4975 125.52 43.8375 125.427 44.0709 125.24C44.3109 125.047 44.4309 124.767 44.4309 124.4C44.4309 124.027 44.3109 123.767 44.0709 123.62C43.8375 123.467 43.4975 123.39 43.0509 123.39H42.1209V125.52ZM48.2388 129.12C47.7122 129.12 47.3288 128.95 47.0888 128.61C46.8488 128.27 46.7288 127.79 46.7288 127.17V124.09H47.8788V127.02C47.8788 127.427 47.9388 127.713 48.0588 127.88C48.1788 128.047 48.3722 128.13 48.6388 128.13C48.8522 128.13 49.0388 128.077 49.1988 127.97C49.3655 127.863 49.5422 127.69 49.7288 127.45V124.09H50.8788V129H49.9388L49.8488 128.28H49.8188C49.6055 128.533 49.3722 128.737 49.1188 128.89C48.8655 129.043 48.5722 129.12 48.2388 129.12ZM52.3355 129V124.09H53.2855L53.3655 124.75H53.4055C53.6255 124.537 53.8655 124.353 54.1255 124.2C54.3855 124.047 54.6821 123.97 55.0155 123.97C55.5421 123.97 55.9255 124.14 56.1655 124.48C56.4055 124.82 56.5255 125.3 56.5255 125.92V129H55.3755V126.07C55.3755 125.663 55.3155 125.377 55.1955 125.21C55.0755 125.043 54.8788 124.96 54.6055 124.96C54.3921 124.96 54.2021 125.013 54.0355 125.12C53.8755 125.22 53.6921 125.37 53.4855 125.57V129H52.3355ZM61.3731 125.52L61.1431 126.32H62.8131L62.5831 125.52C62.4765 125.173 62.3731 124.817 62.2731 124.45C62.1798 124.083 62.0865 123.72 61.9931 123.36H61.9531C61.8665 123.727 61.7731 124.093 61.6731 124.46C61.5798 124.82 61.4798 125.173 61.3731 125.52ZM59.1831 129L61.3131 122.46H62.6731L64.8031 129H63.5831L63.0731 127.23H60.8731L60.3631 129H59.1831ZM66.6293 129.12C66.2226 129.12 65.9326 128.997 65.7593 128.75C65.5926 128.503 65.5093 128.167 65.5093 127.74V121.94H66.6593V127.8C66.6593 127.94 66.686 128.04 66.7393 128.1C66.7926 128.153 66.8493 128.18 66.9093 128.18C66.936 128.18 66.9593 128.18 66.9793 128.18C67.006 128.173 67.0426 128.167 67.0893 128.16L67.2393 129.02C67.1726 129.047 67.086 129.07 66.9793 129.09C66.8793 129.11 66.7626 129.12 66.6293 129.12ZM69.3441 129.12C68.9375 129.12 68.6475 128.997 68.4741 128.75C68.3075 128.503 68.2241 128.167 68.2241 127.74V121.94H69.3741V127.8C69.3741 127.94 69.4008 128.04 69.4541 128.1C69.5075 128.153 69.5641 128.18 69.6241 128.18C69.6508 128.18 69.6741 128.18 69.6941 128.18C69.7208 128.173 69.7575 128.167 69.8041 128.16L69.9541 129.02C69.8875 129.047 69.8008 129.07 69.6941 129.09C69.5941 129.11 69.4775 129.12 69.3441 129.12ZM74.9509 129.12C74.5109 129.12 74.0843 129.037 73.6709 128.87C73.2643 128.703 72.9043 128.467 72.5909 128.16L73.2709 127.37C73.5043 127.59 73.7709 127.77 74.0709 127.91C74.3709 128.043 74.6709 128.11 74.9709 128.11C75.3443 128.11 75.6276 128.033 75.8209 127.88C76.0143 127.727 76.1109 127.523 76.1109 127.27C76.1109 126.997 76.0143 126.8 75.8209 126.68C75.6343 126.56 75.3943 126.437 75.1009 126.31L74.2009 125.92C73.9876 125.827 73.7776 125.707 73.5709 125.56C73.3709 125.413 73.2043 125.227 73.0709 125C72.9443 124.773 72.8809 124.5 72.8809 124.18C72.8809 123.833 72.9743 123.523 73.1609 123.25C73.3543 122.97 73.6143 122.75 73.9409 122.59C74.2743 122.423 74.6543 122.34 75.0809 122.34C75.4609 122.34 75.8276 122.417 76.1809 122.57C76.5343 122.717 76.8376 122.917 77.0909 123.17L76.5009 123.91C76.2943 123.737 76.0743 123.6 75.8409 123.5C75.6143 123.4 75.3609 123.35 75.0809 123.35C74.7743 123.35 74.5243 123.42 74.3309 123.56C74.1443 123.693 74.0509 123.88 74.0509 124.12C74.0509 124.287 74.0976 124.427 74.1909 124.54C74.2909 124.647 74.4209 124.74 74.5809 124.82C74.7409 124.893 74.9109 124.967 75.0909 125.04L75.9809 125.41C76.3676 125.577 76.6843 125.797 76.9309 126.07C77.1776 126.337 77.3009 126.707 77.3009 127.18C77.3009 127.533 77.2076 127.857 77.0209 128.15C76.8343 128.443 76.5643 128.68 76.2109 128.86C75.8643 129.033 75.4443 129.12 74.9509 129.12ZM80.4402 129.12C79.9935 129.12 79.5902 129.02 79.2302 128.82C78.8768 128.613 78.5935 128.32 78.3802 127.94C78.1735 127.553 78.0702 127.09 78.0702 126.55C78.0702 126.003 78.1835 125.54 78.4102 125.16C78.6368 124.773 78.9368 124.48 79.3102 124.28C79.6902 124.073 80.0968 123.97 80.5302 123.97C80.8435 123.97 81.1168 124.023 81.3502 124.13C81.5835 124.237 81.7902 124.367 81.9702 124.52L81.4102 125.27C81.2835 125.157 81.1535 125.07 81.0202 125.01C80.8868 124.943 80.7435 124.91 80.5902 124.91C80.1968 124.91 79.8735 125.06 79.6202 125.36C79.3735 125.66 79.2502 126.057 79.2502 126.55C79.2502 127.037 79.3702 127.43 79.6102 127.73C79.8568 128.03 80.1735 128.18 80.5602 128.18C80.7535 128.18 80.9335 128.14 81.1002 128.06C81.2735 127.973 81.4302 127.873 81.5702 127.76L82.0402 128.52C81.8135 128.72 81.5602 128.87 81.2802 128.97C81.0002 129.07 80.7202 129.12 80.4402 129.12ZM83.0093 129V124.09H83.9593L84.0393 124.96H84.0793C84.2526 124.64 84.4626 124.397 84.7093 124.23C84.956 124.057 85.2093 123.97 85.4693 123.97C85.7026 123.97 85.8893 124.003 86.0293 124.07L85.8293 125.07C85.7426 125.043 85.6626 125.023 85.5893 125.01C85.516 124.997 85.426 124.99 85.3193 124.99C85.126 124.99 84.9226 125.067 84.7093 125.22C84.496 125.367 84.3126 125.627 84.1593 126V129H83.0093ZM86.7398 129V124.09H87.8898V129H86.7398ZM87.3198 123.23C87.1131 123.23 86.9464 123.17 86.8198 123.05C86.6931 122.93 86.6298 122.77 86.6298 122.57C86.6298 122.377 86.6931 122.22 86.8198 122.1C86.9464 121.98 87.1131 121.92 87.3198 121.92C87.5264 121.92 87.6931 121.98 87.8198 122.1C87.9464 122.22 88.0098 122.377 88.0098 122.57C88.0098 122.77 87.9464 122.93 87.8198 123.05C87.6931 123.17 87.5264 123.23 87.3198 123.23ZM89.357 130.94V124.09H90.307L90.387 124.61H90.427C90.6336 124.437 90.8636 124.287 91.117 124.16C91.377 124.033 91.6403 123.97 91.907 123.97C92.5203 123.97 92.9936 124.197 93.327 124.65C93.667 125.103 93.837 125.71 93.837 126.47C93.837 127.03 93.737 127.51 93.537 127.91C93.337 128.303 93.077 128.603 92.757 128.81C92.4436 129.017 92.1036 129.12 91.737 129.12C91.5236 129.12 91.3103 129.073 91.097 128.98C90.8836 128.88 90.677 128.747 90.477 128.58L90.507 129.4V130.94H89.357ZM91.497 128.17C91.8236 128.17 92.097 128.027 92.317 127.74C92.537 127.453 92.647 127.033 92.647 126.48C92.647 125.987 92.5636 125.603 92.397 125.33C92.2303 125.057 91.9603 124.92 91.587 124.92C91.2403 124.92 90.8803 125.103 90.507 125.47V127.76C90.687 127.907 90.8603 128.013 91.027 128.08C91.1936 128.14 91.3503 128.17 91.497 128.17ZM96.5069 129.12C95.9402 129.12 95.5369 128.957 95.2969 128.63C95.0635 128.297 94.9469 127.867 94.9469 127.34V125H94.2469V124.14L95.0069 124.09L95.1469 122.75H96.1069V124.09H97.3569V125H96.1069V127.34C96.1069 127.913 96.3369 128.2 96.7969 128.2C96.8835 128.2 96.9735 128.19 97.0669 128.17C97.1602 128.143 97.2402 128.117 97.3069 128.09L97.5069 128.94C97.3735 128.987 97.2202 129.027 97.0469 129.06C96.8802 129.1 96.7002 129.12 96.5069 129.12ZM99.6625 129.12C99.3292 129.12 98.9958 129.057 98.6625 128.93C98.3292 128.797 98.0425 128.633 97.8025 128.44L98.3425 127.7C98.5625 127.867 98.7825 128 99.0025 128.1C99.2225 128.2 99.4558 128.25 99.7025 128.25C99.9692 128.25 100.166 128.193 100.293 128.08C100.419 127.967 100.483 127.827 100.483 127.66C100.483 127.52 100.429 127.407 100.323 127.32C100.223 127.227 100.093 127.147 99.9325 127.08C99.7725 127.007 99.6058 126.937 99.4325 126.87C99.2192 126.79 99.0058 126.693 98.7925 126.58C98.5858 126.46 98.4158 126.31 98.2825 126.13C98.1492 125.943 98.0825 125.713 98.0825 125.44C98.0825 125.007 98.2425 124.653 98.5625 124.38C98.8825 124.107 99.3158 123.97 99.8625 123.97C100.209 123.97 100.519 124.03 100.793 124.15C101.066 124.27 101.303 124.407 101.503 124.56L100.973 125.26C100.799 125.133 100.623 125.033 100.443 124.96C100.269 124.88 100.086 124.84 99.8925 124.84C99.6458 124.84 99.4625 124.893 99.3425 125C99.2225 125.1 99.1625 125.227 99.1625 125.38C99.1625 125.573 99.2625 125.72 99.4625 125.82C99.6625 125.92 99.8958 126.017 100.163 126.11C100.389 126.19 100.609 126.29 100.823 126.41C101.036 126.523 101.213 126.673 101.353 126.86C101.499 127.047 101.573 127.293 101.573 127.6C101.573 128.02 101.409 128.38 101.083 128.68C100.756 128.973 100.283 129.12 99.6625 129.12Z" fill="white"/>
<path fill-rule="evenodd" clip-rule="evenodd" d="M115 122.843V128.106L118.214 125.498L115 122.843ZM114.971 129.5C114.766 129.5 114.559 129.456 114.367 129.366C113.935 129.162 113.667 128.757 113.667 128.308V122.691C113.667 122.243 113.935 121.838 114.367 121.634C114.855 121.404 115.433 121.471 115.839 121.806L119.239 124.616C119.511 124.84 119.667 125.162 119.667 125.5C119.667 125.837 119.511 126.16 119.239 126.384L115.839 129.192C115.594 129.396 115.285 129.5 114.971 129.5Z" fill="white"/>
<defs>
<linearGradient id="paint0_linear_22_14150" x1="41" y1="81" x2="181.184" y2="124.55" gradientUnits="userSpaceOnUse">
<stop stop-color="#D9D9D9"/>
<stop offset="1" stop-color="#737373"/>
</linearGradient>
<linearGradient id="paint1_linear_22_14150" x1="41" y1="88" x2="181.184" y2="131.55" gradientUnits="userSpaceOnUse">
<stop stop-color="#D9D9D9"/>
<stop offset="1" stop-color="#737373"/>
</linearGradient>
<linearGradient id="paint2_linear_22_14150" x1="41" y1="95" x2="161.049" y2="126.079" gradientUnits="userSpaceOnUse">
<stop stop-color="#D9D9D9"/>
<stop offset="1" stop-color="#737373"/>
</linearGradient>
<linearGradient id="paint3_linear_22_14150" x1="44" y1="154" x2="100.187" y2="160.465" gradientUnits="userSpaceOnUse">
<stop stop-color="#D9D9D9"/>
<stop offset="1" stop-color="#737373"/>
</linearGradient>
<linearGradient id="paint4_linear_22_14150" x1="244" y1="138" x2="384.184" y2="181.55" gradientUnits="userSpaceOnUse">
<stop stop-color="#D9D9D9"/>
<stop offset="1" stop-color="#737373"/>
</linearGradient>
<linearGradient id="paint5_linear_22_14150" x1="244" y1="156" x2="408.818" y2="218.897" gradientUnits="userSpaceOnUse">
<stop stop-color="#D9D9D9"/>
<stop offset="1" stop-color="#737373"/>
</linearGradient>
<linearGradient id="paint6_linear_22_14150" x1="244" y1="174" x2="384.184" y2="217.55" gradientUnits="userSpaceOnUse">
<stop stop-color="#D9D9D9"/>
<stop offset="1" stop-color="#737373"/>
</linearGradient>
<linearGradient id="paint7_linear_22_14150" x1="244" y1="192" x2="399.913" y2="247.313" gradientUnits="userSpaceOnUse">
<stop stop-color="#D9D9D9"/>
<stop offset="1" stop-color="#737373"/>
</linearGradient>
<linearGradient id="paint8_linear_22_14150" x1="244" y1="210" x2="420.076" y2="283.609" gradientUnits="userSpaceOnUse">
<stop stop-color="#D9D9D9"/>
<stop offset="1" stop-color="#737373"/>
</linearGradient>
<linearGradient id="paint9_linear_22_14150" x1="244" y1="228" x2="403.793" y2="286.528" gradientUnits="userSpaceOnUse">
<stop stop-color="#D9D9D9"/>
<stop offset="1" stop-color="#737373"/>
</linearGradient>
<linearGradient id="paint10_linear_22_14150" x1="244" y1="246" x2="384.184" y2="289.55" gradientUnits="userSpaceOnUse">
<stop stop-color="#D9D9D9"/>
<stop offset="1" stop-color="#737373"/>
</linearGradient>
</defs>
</svg>
